<svg width="202" height="258" viewBox="0 0 202 258" fill="none" xmlns="http://www.w3.org/2000/svg">
<path d="M172.48 225.374C172.46 224.978 172.69 224.642 172.861 224.302C173.198 223.668 173.614 223.077 174.053 222.51C175.436 220.793 177.197 219.449 179.045 218.27C181.388 216.666 183.815 215.177 186.462 214.125C189.968 212.637 193.64 211.603 197.259 210.433C198.467 210.087 199.686 209.739 200.941 209.612C202.573 209.447 204.214 209.56 205.85 209.495C209.466 209.376 213.084 209.289 216.702 209.3C216.719 209.215 216.736 209.131 216.747 209.048C216.784 208.802 216.837 208.559 216.903 208.32C215.643 207.666 214.383 207.013 213.125 206.356C207.182 203.234 201.373 199.861 195.764 196.174C195.39 196.411 194.893 196.363 194.459 196.364C193.31 196.325 192.176 196.141 191.053 195.902C190.411 195.911 189.822 195.973 189.344 196.124C186.713 196.724 184.14 197.555 181.501 198.117C177.233 198.948 172.905 199.415 168.596 199.978C164.203 200.565 159.826 200.202 155.428 199.906C150.848 199.659 146.098 199.173 142.097 196.739C140.596 195.934 137.258 194.062 139.475 192.264C140.597 191.576 141.894 191.269 143.118 190.815C145.694 190.031 148.262 189.19 150.898 188.63C154.273 187.891 157.728 188.042 161.158 188.04C164.314 188.014 167.481 188.055 170.607 188.531C173.91 188.946 177.08 189.991 180.217 191.064C182.487 191.849 184.745 192.664 187.001 193.488C188.451 193.586 189.893 193.786 191.336 193.986C191.49 193.965 191.644 193.944 191.799 193.927C191.996 193.921 192.194 193.924 192.392 193.93C188.359 191.236 184.333 188.504 180.854 185.105C177.363 181.782 173.899 178.418 170.716 174.795C168.514 172.285 166.461 169.655 164.475 166.974C163.851 166.729 163.233 166.469 162.617 166.202C162.442 166.183 162.267 166.162 162.094 166.132C162.023 166.134 161.97 166.108 161.935 166.053C161.879 166.006 161.862 165.94 161.859 165.87C161.091 165.532 160.325 165.19 159.552 164.865C158.393 164.352 157.177 163.996 155.989 163.561C155.424 163.338 154.871 163.085 154.299 162.881C153.396 162.738 152.49 162.612 151.6 162.405C148.619 161.759 145.592 161.077 142.526 161.11C138.767 161.528 135.01 160.925 131.306 160.313C128.196 159.777 125.075 159.307 121.947 158.884C120.467 158.729 118.973 158.68 117.515 158.358C114.253 157.746 111.067 156.763 108.086 155.296C105.777 154.296 103.807 153.899 101.294 153.278C100.687 153.054 99.9186 152.975 99.4693 152.504C99.0474 151.735 99.8925 150.967 100.403 150.465C102.285 148.587 104.791 147.446 107.298 146.655C109.856 145.972 112.393 145.214 114.93 144.457C116.444 144.04 117.947 143.525 119.519 143.386C122.11 143.202 124.679 143.728 127.245 144C130.449 144.396 133.668 144.752 136.805 145.542C139.546 146.165 142.023 147.555 144.372 149.057C145.946 150.046 147.44 151.155 148.883 152.323C151.77 154.624 154.457 157.151 156.99 159.828C158.235 160.382 159.463 160.969 160.637 161.662C158.426 158.616 156.29 155.52 154.195 152.394C151.915 149.137 149.805 145.772 147.752 142.368C145.87 139.309 143.961 136.256 142.365 133.034C141.978 132.211 141.617 131.378 141.26 130.542C141.21 130.495 141.162 130.45 141.11 130.401C140.211 129.607 139.393 128.403 138.781 127.786C138.164 127.137 137.352 126.737 136.636 126.214C134.537 124.719 132.303 123.403 130.001 122.246C128.04 121.311 125.965 120.663 123.902 120.002C120.803 119.052 117.87 117.685 115.009 116.176C112.468 114.989 109.896 113.845 107.239 112.941C104.088 111.843 101.013 110.527 97.9956 109.106C96.246 108.401 94.5107 107.658 92.8776 106.706C89.9501 104.987 87.3303 102.749 84.2703 101.255C83.4425 100.883 82.5649 100.64 81.7254 100.298C81.4467 100.127 80.9734 100.141 80.8783 99.7981C80.9991 98.3581 82.7558 98.0305 83.9271 97.8428C90.4068 96.816 96.9794 97.8938 103.217 99.7188C105.549 100.335 107.874 100.993 110.101 101.927C112.233 102.771 114.26 103.846 116.289 104.909C120.066 106.798 123.861 108.793 126.992 111.671C130.341 114.688 133.2 118.208 135.844 121.847C136.557 122.826 137.256 123.816 137.92 124.828C138.158 125.065 138.394 125.304 138.63 125.543C138.865 125.7 139.095 125.865 139.309 126.049C137.014 120.842 134.651 115.663 132.539 110.378C131.201 106.866 129.656 103.416 128.655 99.7864C127.913 96.965 127.365 94.0965 126.715 91.2532C126.256 89.7957 125.407 86.9075 124.811 84.9624C124.387 83.6652 123.87 82.3992 123.366 81.1286C122.253 79.8784 120.988 78.8262 119.198 78.2217C118.554 78.1032 116.715 77.6198 115.702 77.2733C114.415 76.8612 112.654 76.2163 111.723 75.9744C110.873 75.7263 109.986 75.6558 109.129 75.4442C107.374 75.0412 105.651 74.5191 103.909 74.0675C101.624 73.4779 99.3218 72.9084 97.1332 72.015C95.464 71.3237 93.8806 70.4482 92.1962 69.7922C89.3539 68.6733 86.576 67.3856 84.0957 65.5818C83.1204 64.8955 82.0938 64.2448 81.2667 63.3789C80.8211 62.8829 80.5637 62.2544 80.1441 61.7385C79.9296 61.4581 79.7524 61.1175 79.7947 60.7558C79.8607 60.2878 80.1349 59.8124 80.5433 59.5672C80.7919 59.4278 81.0583 59.5632 81.3187 59.5908C81.8029 59.6822 82.2841 59.7898 82.7668 59.8892C84.7248 60.41 86.7465 60.5099 88.7615 60.5879C93.8821 60.7638 98.7748 61.4482 103.372 63.8458C106.671 65.4839 109.698 67.613 112.629 69.8303C115.517 71.9316 118.092 74.4013 120.64 76.8937C118.778 75.5523 116.93 74.1922 115.072 72.8454C112.646 71.294 110.224 69.737 107.786 68.2035C104.665 66.2755 100.773 64.1025 97.5863 63.226C94.9024 62.4765 92.1149 62.1978 89.3421 62.0212C87.1449 61.8834 84.9137 61.906 82.7659 61.3652C82.3017 61.2557 81.8359 61.1522 81.3694 61.0529C81.6745 61.504 82.0631 62.125 82.1083 62.127C83.8521 63.6979 85.9048 64.922 87.9295 66.0968C89.7712 67.0977 91.7441 67.8131 93.6757 68.6154C95.2313 69.2235 96.6938 70.0444 98.258 70.6347C100.068 71.3446 101.446 71.6712 103.356 72.1781C105.502 72.6983 107.611 73.3509 109.762 73.8515C109.762 73.8516 109.763 73.8517 109.763 73.8517C108.458 73.3229 107.126 72.8626 105.811 72.3567C103.781 71.5543 101.725 70.8238 99.6839 70.0513C97.6899 69.1589 95.7425 68.1726 93.9054 66.9865C93.4613 66.6982 93.0179 66.4082 92.5757 66.1167C93.0738 66.3327 93.5712 66.5505 94.0679 66.77C95.9801 67.6235 98.5067 68.5026 100.215 69.092C102.378 69.6907 104.538 70.3099 106.634 71.1169C109.401 72.0987 111.992 73.4658 114.558 74.8781C114.865 75.0359 115.168 75.2017 115.468 75.3701C116.5 75.727 117.532 76.085 118.581 76.3892C118.847 76.4724 120.314 76.7308 121.1 77.2342C121.443 77.4044 121.768 77.6006 122.081 77.8133C121.705 76.8646 121.316 75.9215 120.891 74.9928C119.121 70.8346 117.228 66.7369 115.165 62.7156C114.492 61.372 113.785 60.0467 113.059 58.732C113.019 58.7148 112.979 58.6943 112.938 58.6676C112.278 57.8619 111.571 57.0937 110.927 56.2734C110.013 55.1316 109.161 53.9368 108.389 52.6948C108.325 52.5935 108.264 52.4906 108.205 52.387C107.966 52.2272 107.723 52.0741 107.466 51.9417C101.648 49.0912 96.0353 45.8223 90.0886 43.2343C86.8887 41.8166 84.3033 39.3775 81.9437 36.8478C79.0793 33.7808 76.046 30.8803 73.147 27.8468C70.4416 25.2378 67.7212 22.4773 64.2714 20.8712C63.5595 20.5267 63.2633 20.5477 62.4011 20.473C62.0887 20.4581 61.7464 20.4391 61.5077 20.2109C61.3515 20.0903 61.4038 19.8595 61.4479 19.6929C61.5527 19.3723 61.7514 19.0783 62.0272 18.8816C62.5175 18.6719 63.1103 18.7237 63.6385 18.7207C66.7743 18.8606 69.8481 19.5344 72.9307 20.0758C76.9019 20.7793 80.8703 21.6846 84.4784 23.5452C88.3837 25.4488 92.3036 27.48 95.4995 30.4731C97.6293 32.3586 99.3417 34.6334 101.056 36.888C103.163 39.6448 105.113 42.5078 106.939 45.458C108.884 48.4884 110.77 51.5536 112.575 54.6666C112.501 53.9267 112.462 53.1829 112.442 52.4436C112.449 51.0518 112.515 49.6307 112.943 48.2964C114.856 43.3326 119.171 39.356 124.354 38.058C126.12 37.5733 127.894 37.0343 129.738 36.9788C131.074 36.9109 132.407 37.0989 133.741 37.147C135.03 37.3024 136.56 37.6848 137.496 37.9405C138.404 38.4517 136.819 40.7866 136.456 41.4115C136.101 42.0733 135.759 42.7846 135.408 43.466C134.744 44.7067 134.266 46.0678 133.361 47.1634C132.126 48.4402 130.531 49.3236 129.013 50.2221C126.815 51.4879 124.69 52.8871 122.423 54.0293C120.867 54.6232 119.255 55.0765 117.682 55.6299C116.607 56.0293 115.634 56.7034 114.748 57.414L114.747 57.4146C114.667 57.5947 114.546 57.7518 114.403 57.8871C114.783 58.5718 115.159 59.2586 115.53 59.9485C116.748 62.3889 117.961 64.8321 119.178 67.2736C120.887 71.2023 122.708 75.0835 124.203 79.1011C124.368 79.5244 124.532 79.9477 124.698 80.371C124.739 80.4252 124.782 80.4781 124.823 80.5326C125.315 81.172 125.798 81.8176 126.277 82.467C126.125 80.0165 126.55 77.5302 127.467 75.256C128.089 73.3827 128.922 71.5899 129.944 69.9014C131.802 66.7177 134.705 64.3375 137.557 62.0778C139.783 60.4042 142.103 58.8153 144.645 57.66C146.699 56.8152 148.809 56.011 150.999 55.6086C153.85 55.2349 156.757 55.4807 159.583 55.9516C160.965 56.2278 162.316 56.6447 163.695 56.94C163.809 56.9866 163.973 56.9509 164.05 57.0565C164.216 57.2668 164.065 57.5853 163.973 57.8044C163.495 58.7856 162.554 59.4133 161.761 60.1217C159.82 61.8533 157.842 63.5911 156.344 65.7367C153.729 69.3336 150.518 72.5697 146.794 75.0163C144.96 76.1698 142.964 77.0364 141.048 78.0419C140.247 78.6048 137.878 79.7512 136.481 80.4289C134.765 81.2192 133.453 82.62 131.879 83.6334C130.868 84.2851 129.694 84.7178 128.806 85.5437C128.513 85.8675 128.328 86.2708 128.063 86.6159C127.804 86.9759 127.469 87.4239 127.245 87.9658C127.52 88.8803 127.785 89.7978 128.02 90.7226C128.886 94.4392 129.439 97.8915 130.655 101.242C133.096 107.885 135.853 114.406 138.74 120.866C139.947 123.566 141.119 126.28 142.29 128.995C143.22 124.944 144.362 120.946 145.5 116.949C147.263 110.47 150.139 104.195 154.667 99.1734C157.49 96.1126 161.087 93.8845 164.609 91.7175C167.419 90.0426 170.267 88.3959 173.345 87.2594C176.815 85.8941 180.437 85.008 184.099 84.3375C185.637 84.0678 187.18 83.7952 188.736 83.6598C189.177 83.6131 189.619 83.5904 190.063 83.6019C190.155 83.6151 190.248 83.6706 190.253 83.7715C190.261 84.0005 190.22 84.2239 190.154 84.4427C190.367 84.3437 190.581 84.2463 190.793 84.1452C190.565 84.281 190.341 84.4216 190.116 84.5618C189.942 85.0579 189.632 85.5257 189.364 85.9583C188.936 86.5839 188.664 87.3212 188.386 88.0502C186.88 91.964 185.812 96.0758 183.831 99.7892C181.268 104.219 177.896 108.107 174.417 111.835C171.394 115.122 167.972 118.019 164.412 120.709C163.544 121.466 162.49 121.949 161.459 122.441C159.808 123.256 158.06 123.871 156.243 124.189C154.228 124.611 152.413 124.397 150.701 125.084C149.894 125.357 149.109 125.69 148.312 125.993C147.756 126.216 147.123 126.379 146.668 126.764C145.498 127.931 144.998 129.785 143.75 130.952C143.769 130.977 143.789 131.001 143.808 131.026C143.997 131.292 144.307 131.546 144.148 131.901C144.13 132.033 144.01 132.25 143.856 132.43C144.904 134.483 146.063 136.48 147.264 138.445C149.047 141.316 150.759 144.233 152.581 147.078C156.229 152.512 159.909 157.922 163.766 163.21C163.96 163.487 164.162 163.768 164.363 164.049C164.808 163.918 165.253 163.787 165.699 163.66C166.91 161.213 168.244 158.829 169.84 156.607C171.754 153.738 174.041 151.143 176.687 148.928C178.096 147.669 179.533 146.438 181.046 145.306C182.158 144.452 183.287 143.594 184.578 143.025C188.324 141.496 192.338 140.773 196.276 139.919C200.083 139.05 203.931 138.389 207.833 138.156C209.843 138.085 211.854 137.876 213.866 137.94C215.661 138.097 217.407 138.608 219.107 139.182C221.276 139.913 223.32 140.952 225.445 141.795C225.51 141.824 225.579 141.844 225.646 141.867C225.928 141.961 226.21 142.055 226.493 142.149C226.516 142.155 226.538 142.162 226.562 142.166C226.787 142.218 227.044 142.227 227.219 142.391C227.83 143.013 227.175 143.956 226.606 144.364C224.984 145.33 223.739 147.002 222.592 148.575C221.751 149.667 220.747 150.623 219.738 151.557C216.936 154.153 213.729 156.173 210.376 157.948C210.415 157.943 210.454 157.933 210.494 157.929C210.549 157.934 210.692 157.905 210.728 157.896C211.169 157.809 211.554 157.531 212.009 157.505C213.106 157.433 213.551 157.621 213.836 158.75C214.903 162.15 214.327 165.808 213.153 169.104C212.483 171.105 211.972 173.156 211.333 175.167C210.875 176.836 210.761 177.896 210.417 179.6C209.961 181.592 209.013 183.437 207.704 185.002C206.933 186.003 206.21 187.046 205.328 187.954C204.152 189.132 202.816 190.137 201.555 191.219C200.068 192.397 198.585 193.608 196.804 194.316C196.732 194.347 196.661 194.379 196.589 194.41C196.591 194.468 196.592 194.524 196.593 194.581C201.097 197.529 205.711 200.307 210.447 202.867C212.781 204.165 215.146 205.41 217.524 206.631C217.632 205.902 217.756 205.105 217.912 204.352C217.569 200.977 217.726 197.557 218.139 194.188C218.281 192.263 218.341 190.326 218.825 188.445C219.336 186.317 220.233 184.291 221.248 182.358C222.839 179.303 225.154 176.702 227.611 174.314C229.892 172.244 232.697 170.114 234.699 168.06C234.617 168.137 234.75 168.009 234.791 167.96C234.93 167.802 235.087 167.659 235.263 167.542C235.478 167.379 235.946 167.273 236.028 167.603C236.075 167.752 236.043 167.923 235.996 168.071C235.801 168.777 235.545 169.463 235.331 170.163C234.195 174.328 234.313 179.045 233.302 183.382C232.579 186.193 231.446 188.879 230.221 191.504C229.242 193.597 228.253 195.689 227.116 197.702C225.266 200.93 221.816 203.636 219.517 205.99C219.297 206.248 219.056 206.55 218.848 206.822C218.824 206.97 218.798 207.119 218.77 207.266C219.221 207.496 219.671 207.727 220.123 207.955C220.161 207.928 220.198 207.902 220.237 207.874C220.745 207.55 220.902 207.917 220.847 208.321C230.022 212.952 239.289 217.427 247.693 223.37C242.912 221.01 238.015 218.896 233.201 216.605C228.711 214.386 224.247 212.113 219.795 209.816C219.58 209.981 219.351 210.129 219.123 210.268C219.105 210.277 219.087 210.287 219.07 210.296C218.678 210.58 218.248 210.882 217.908 211.091C217.124 211.633 215.832 212.2 215.588 212.353C212.964 214.044 210.32 215.703 207.611 217.256C204.014 219.23 200.254 220.899 196.38 222.25C193.443 223.177 190.412 223.775 187.407 224.436C184.033 224.898 180.66 225.398 177.262 225.643C175.752 225.726 174.204 226.056 172.72 225.639C172.573 225.642 172.486 225.504 172.48 225.374ZM177.868 191.905C172.921 190.54 167.834 189.65 162.688 189.721C158.997 189.811 155.278 189.518 151.617 190.098C148.578 190.586 143.647 192.127 140.555 193.258C141.275 194.074 142.453 194.604 143.521 195.239C147.3 197.437 151.409 197.799 155.865 198.047C159.517 198.21 163.179 198.615 166.833 198.306C169.555 198.103 172.253 197.682 174.957 197.326C177.7 196.975 179.607 196.722 182.244 196.196C183.529 195.932 184.81 195.57 186.093 195.208C185.81 195.188 185.528 195.167 185.245 195.153C181.738 195.102 178.235 195.419 174.729 195.474C172.382 195.531 170.033 195.393 167.687 195.311C166.762 195.261 165.837 195.208 164.912 195.151C165.686 195.087 166.46 195.024 167.234 194.964C169.74 194.746 172.251 194.572 174.756 194.338C177.891 193.993 181.028 193.611 184.18 193.461C182.071 192.963 179.968 192.44 177.868 191.905ZM130.031 119.39C126.137 116.434 121.676 114.388 117.318 112.227C115.897 111.58 114.432 111.031 112.987 110.44C113.888 110.631 115.986 111.238 117.282 111.62C121.814 113.306 126.429 115.007 130.384 117.852C131.191 118.404 131.941 119.023 132.662 119.677C132.604 119.613 132.546 119.549 132.488 119.485C129.889 116.726 127.267 113.956 124.298 111.588C120.518 108.707 116.142 106.768 111.946 104.589C107.646 102.486 103.848 101.567 99.503 100.395C95.5476 99.401 91.4782 98.7659 87.3901 98.9297C86.0414 98.9909 84.6889 99.0512 83.4582 99.2467C84.5585 99.6396 85.645 100.07 86.6324 100.706C89.2771 102.272 91.6903 104.209 94.3907 105.679C95.8078 106.459 97.3001 107.077 98.8014 107.671C100.318 108.39 101.853 109.067 103.41 109.694C106.02 110.884 108.791 111.652 111.426 112.773C112.835 113.403 114.273 113.975 115.665 114.64C117.313 115.452 118.925 116.345 120.619 117.058C124.695 118.768 129.126 119.62 132.949 121.909C132.028 121.009 131.08 120.141 130.031 119.39ZM107.014 50.3152C106.3 49.3443 105.473 48.4661 104.707 47.5377C103.477 45.9921 102.566 44.8434 101.262 43.4464C100.357 42.5564 99.4755 41.6352 98.4569 40.8726C96.7767 39.7072 95.0018 38.6845 93.2703 37.6021C90.8286 35.7185 88.4964 33.6941 86.1343 31.7121C84.0736 29.938 81.9572 28.213 80.1255 26.1957C82.254 27.9462 84.5963 29.4068 86.8423 30.9977C89.3077 32.6938 91.6931 34.5022 94.1124 36.2614C95.3351 36.9948 96.5836 37.6817 97.7604 38.4921C98.8482 39.1399 99.8728 39.8796 100.78 40.7664C102.428 42.3195 103.88 44.0529 105.275 45.8319C104.454 44.5435 103.631 43.2566 102.787 41.9835C101.524 40.2665 100.275 38.538 98.9728 36.8502C96.0715 32.838 92.3052 29.5287 87.7279 27.1125C84.3953 25.3158 80.6386 23.3899 77.2718 22.6132C74.8674 22.0306 72.4334 21.5813 69.9996 21.1402C69.0722 20.9633 68.1428 20.7937 67.2101 20.6445C67.3407 20.7297 67.4705 20.8157 67.5996 20.9012C70.8925 23.1711 73.6737 26.0895 76.4532 28.9427C78.9768 31.4314 81.4687 33.95 83.929 36.5012C85.911 38.487 88.0974 40.3298 90.6632 41.5114C93.0657 42.5863 95.4762 43.6634 97.7877 44.9247C100.816 46.5777 103.702 48.4628 106.557 50.3952C106.843 50.584 107.134 50.7657 107.422 50.9524C107.295 50.7342 107.162 50.5202 107.014 50.3152ZM114.475 56.6229C115.354 55.7247 116.435 54.9939 117.545 54.4084C119.082 53.763 120.695 53.3014 122.284 52.7993C124.318 51.9666 126.301 50.6071 128.219 49.5092C129.718 48.6614 131.212 47.8031 132.587 46.7613C133.086 46.4105 133.367 45.894 133.626 45.375C134.337 43.9115 135.052 42.447 135.822 41.0136C136.058 40.6319 136.318 40.222 136.505 39.8258C134.135 40.9998 131.706 42.124 129.1 42.6415C127.979 42.8736 126.83 42.912 125.704 43.1141C124.335 43.3958 122.97 43.7626 121.684 44.3148C121.139 44.6051 120.692 45.0441 120.216 45.4304C120.371 45.2608 120.526 45.0914 120.681 44.9219C121.516 43.8746 122.744 43.3298 123.933 42.7891C124.915 42.3935 125.91 42.0172 126.957 41.8325C128.056 41.6122 129.177 41.5287 130.279 41.3205C132.405 40.931 134.476 40.3052 136.554 39.7204C136.606 39.6003 136.653 39.4818 136.687 39.3663C136.678 39.3613 136.667 39.355 136.652 39.3465C136.621 39.3305 136.588 39.3178 136.554 39.3086C136.834 39.3588 136.232 39.2459 136.158 39.2014C135.687 39.1818 134.247 38.7186 133.395 38.6532C132.178 38.5479 130.954 38.4678 129.734 38.416C127.828 38.4151 126.585 38.7309 124.76 39.2253C121.229 40.0392 117.933 41.7472 115.748 44.7119C114.982 45.7523 114.245 46.8543 113.81 48.078C113.474 49.1825 113.423 50.3559 113.398 51.5031C113.408 52.9674 113.554 54.4304 113.831 55.8688C114.039 55.4653 114.265 55.0706 114.498 54.6836C115.66 52.7913 117.714 51.5316 118.484 49.3933C118.856 48.5375 119.07 47.6298 119.296 46.7277C119.247 47.0102 119.204 47.2942 119.156 47.5773C118.96 48.7362 118.605 49.8848 118.027 50.9117C117.315 52.0259 116.394 52.9889 115.58 54.0276C115.152 54.5815 114.807 55.1918 114.517 55.8281C114.385 56.1623 114.052 56.5818 114.231 56.9242C114.325 56.7927 114.416 56.684 114.475 56.6229ZM128.904 84.5648C129.908 83.6343 131.178 83.0643 132.276 82.2629C133.345 81.4737 134.311 80.5507 135.394 79.7812C136.603 79 137.931 78.4279 139.223 77.8003C139.755 77.5782 140.5 77.069 141.355 76.6102C142.455 76.0553 143.56 75.5098 144.661 74.9563C149.647 72.5621 153.533 68.3952 156.718 63.9614C158.418 61.8547 160.506 60.1216 162.496 58.3049L162.496 58.3048C162.448 58.2942 162.401 58.2823 162.354 58.2713C160.453 59.0032 158.513 59.6291 156.615 60.3696C154.282 61.3306 152.001 62.4173 149.663 63.3714C152.014 62.0068 154.362 60.5965 156.869 59.537C158.456 58.9261 160.108 58.5217 161.761 58.1278C160.66 57.8486 159.571 57.5196 158.448 57.3416C155.751 56.9145 152.978 56.6883 150.26 57.051C148.759 57.3243 146.362 58.1497 144.563 58.8758C141.845 60.048 139.399 61.7687 137.047 63.5462C135.04 65.1799 132.985 66.8324 131.417 68.9089C130.099 70.7523 129.069 72.7961 128.345 74.9427C127.249 77.5861 126.903 80.5385 127.419 83.3581C127.482 83.724 127.583 84.083 127.707 84.4332C128.205 83.8159 128.731 83.2182 129.157 82.5661C129.616 81.9629 129.801 81.3626 129.974 80.5997C130.35 79.3589 130.546 78.0613 131.007 76.8499C131.809 75.1042 133.246 73.7584 134.596 72.4312C138.078 69.0022 142.474 66.7839 146.686 64.4004C143.766 66.437 140.598 68.4142 137.853 70.5437C135.674 72.3558 133.009 74.7904 131.864 76.5809C131.402 77.5001 131.207 78.7477 130.802 79.8646C130.494 80.875 130.212 81.9175 129.524 82.747C129.02 83.4641 128.412 84.0757 127.835 84.7059C127.931 84.8858 128.013 85.0717 128.067 85.2634C128.076 85.2785 128.082 85.2947 128.09 85.31C128.088 85.3134 128.085 85.3167 128.082 85.3199C128.096 85.3719 128.108 85.4242 128.117 85.4768C128.114 85.5159 128.107 85.5556 128.099 85.5955C128.327 85.2222 128.579 84.8648 128.904 84.5648ZM126.278 84.8335C126.401 85.2328 126.525 85.6316 126.648 86.0302C126.708 85.9001 126.771 85.7715 126.841 85.6459C126.67 85.3649 126.481 85.0952 126.278 84.8335ZM127.66 86.3318C127.57 86.3994 127.47 86.4491 127.361 86.4719C127.289 86.4736 127.248 86.4304 127.215 86.3778C127.214 86.3785 127.214 86.3789 127.213 86.3793C127.212 86.3754 127.21 86.3716 127.208 86.3679C127.191 86.3383 127.175 86.3071 127.159 86.2778C127.077 86.1251 127.006 85.9666 126.939 85.8063C126.856 85.9392 126.779 86.0755 126.705 86.2134C126.822 86.5903 126.939 86.9671 127.055 87.3444C127.233 86.9945 127.442 86.6596 127.66 86.3318ZM144.517 128.483C145.357 127.042 146.291 125.421 147.952 124.84C149.348 124.344 150.71 123.737 152.146 123.36C153.404 123.054 154.714 123.099 155.99 122.914C158.275 122.625 161.216 121.55 163.546 120.204C165.83 118.595 167.267 117.343 169.461 115.545C171.131 113.923 172.783 112.514 173.976 111.166C177.11 107.815 180.152 104.351 182.591 100.449C184.622 97.1087 185.454 93.6567 186.823 90.0234C187.321 88.7022 187.727 87.3345 188.399 86.0873C188.549 85.7979 188.739 85.5398 188.901 85.2728C186.961 86.362 185.244 87.7903 183.466 89.1178L183.403 89.1654C183.177 89.3622 182.952 89.5591 182.725 89.7554C181.581 90.7026 180.893 91.9103 179.78 93.0307C178.989 93.9078 178.036 94.6108 177.17 95.4099C175.62 96.9802 173.984 98.4635 172.099 99.6242C170.868 100.444 169.602 101.212 168.325 101.957C167.304 102.484 166.238 102.918 165.223 103.455C163.301 104.453 161.509 105.685 159.802 107.014C161.788 105.196 163.925 103.532 166.273 102.206C168.115 101.26 169.823 100.098 171.513 98.9057C172.247 98.3836 172.966 97.8415 173.704 97.3241C174.887 96.3794 175.945 95.2915 177.04 94.2482C178.049 93.3549 179.144 92.5595 180.052 91.5567C180.394 91.2066 181.63 89.6416 182.459 89.0324C183.389 88.2545 184.416 87.6064 185.436 86.9537C186.433 86.2984 187.448 85.663 188.536 85.1684C188.583 85.1479 188.631 85.1259 188.678 85.1053C188.229 85.1429 187.78 85.1897 187.331 85.228C186.442 85.3329 184.441 85.6824 184.031 85.7303C180.147 86.4571 176.3 87.3828 172.627 88.8646C170.003 89.8589 167.553 91.2389 165.144 92.6673C161.629 94.7905 157.944 97.0146 155.12 99.9556C151.236 104.183 148.789 109.412 146.996 114.873C145.601 119.264 144.075 123.611 142.66 127.995C142.994 127.124 143.36 126.312 143.534 125.784C144.397 123.452 145.532 121.201 146.975 119.172C149.248 116.114 152.06 113.508 154.744 110.819C155.374 110.205 156.007 109.593 156.64 108.982C156.115 109.581 155.588 110.181 155.061 110.779C152.311 114.025 149.232 117.06 146.952 120.648C145.851 122.485 144.972 124.524 144.208 126.576C143.949 127.173 143.703 127.72 143.515 128.317C143.302 128.846 143.097 129.766 143.169 130.138C143.876 129.762 144.027 129.254 144.517 128.483ZM153.39 160.852C153.984 160.915 154.568 161.035 155.141 161.194C155.56 161.265 155.978 161.335 156.396 161.41C156.409 161.413 156.422 161.417 156.435 161.42C155.57 161.025 154.695 160.65 153.824 160.277C151.535 159.237 149.322 158.012 146.93 157.213C142.256 155.649 137.89 154.432 132.997 153.367C130.93 152.91 128.855 152.496 126.78 152.078C127.525 152.077 129.903 152.266 131.204 152.388C136.978 152.9 142.73 153.969 148.202 155.911C150.438 156.689 152.517 157.838 154.669 158.813C154.78 158.861 154.891 158.91 155.002 158.959C152.38 156.881 149.702 154.878 146.962 152.954C143.406 150.483 139.473 147.772 135.496 146.997C133.026 146.412 130.508 146.095 127.992 145.787C124.769 145.486 121.534 144.714 118.288 145.057C116.003 145.452 112.727 146.584 110.046 147.342C108.113 147.923 106.114 148.315 104.283 149.194C103.082 149.731 101.931 150.398 100.941 151.263C101.659 151.566 102.726 151.833 103.713 152.045C105.045 152.388 106.386 152.715 107.688 153.165C108.991 153.607 110.205 154.257 111.478 154.772C114.026 155.751 116.165 156.278 118.918 156.777C120.181 157.013 121.468 157.032 122.742 157.171C125.934 157.583 129.114 158.066 132.286 158.608C135.527 159.126 138.797 159.67 142.089 159.46C145.493 159.108 148.893 159.9 152.198 160.645C152.503 160.714 152.81 160.776 153.117 160.835C153.208 160.842 153.299 160.844 153.39 160.852ZM217.155 152.544C218.739 151.34 220.238 150.017 221.595 148.563C222.894 146.981 224.003 145.258 225.6 143.94C225.709 143.838 225.822 143.741 225.937 143.647C225.422 143.503 224.745 143.257 224.009 142.966C222.806 143.109 221.64 143.461 220.455 143.714C216.893 144.324 213.407 145.547 210.224 147.083C206.018 148.648 201.913 150.472 197.726 152.08C194.955 153.011 192.123 153.75 189.288 154.458C192.218 153.378 195.161 152.328 198.05 151.141C201.991 149.37 205.856 147.413 209.933 145.963C211.002 145.628 211.974 145.066 213.035 144.713C215.253 143.925 217.548 143.338 219.893 143.092C221.05 143 222.199 142.784 223.354 142.702C222.243 142.247 221.071 141.732 220.154 141.332C218.512 140.687 217.082 140.197 215.584 139.847C213.833 139.362 212.023 139.373 210.226 139.506C207.816 139.613 205.409 139.764 203.014 140.063C199.896 140.423 197.012 141.178 193.716 141.845C191.588 142.301 189.458 142.768 187.373 143.396C186 143.815 184.589 144.189 183.337 144.911C181.254 146.204 179.364 147.792 177.515 149.395C176.135 150.626 174.713 151.817 173.435 153.156C170.526 156.331 168.069 159.88 165.909 163.599C166.271 163.498 166.633 163.4 166.998 163.314C168.362 163.004 169.524 162.193 170.724 161.515C173.973 159.685 177.118 157.567 180.725 156.494C181.625 156.199 182.57 156.145 183.508 156.085C182.73 156.257 181.936 156.376 181.188 156.661C176.314 158.518 172.354 162.06 167.772 164.464C167.318 164.658 166.829 164.823 166.327 164.976C166.795 165.089 167.258 165.224 167.712 165.397C168.874 165.859 170.189 165.883 171.68 166.068C173.59 166.193 175.498 166.421 177.413 166.451C179.08 166.446 180.721 166.127 182.374 165.968C185.558 166.001 188.316 165.982 191.118 164.909C196.222 163.097 201.261 161.082 206.156 158.761C209.996 157.021 213.77 155.076 217.155 152.544ZM198.814 191.744C200.627 190.537 201.395 189.824 202.816 188.652C204.357 187.404 205.436 186.468 206.538 184.895C207.595 183.534 208.377 182.59 208.764 181.43C209.284 180.149 209.341 178.995 209.673 177.605C210.125 175.464 210.865 173.401 211.462 171.297C211.796 170.074 212.296 168.905 212.639 167.686C213.154 165.62 213.554 163.306 213.066 161.11C212.83 160.241 212.898 159.847 212.477 159.164C212.454 159.145 212.438 159.124 212.428 159.107C212.415 159.096 212.403 159.082 212.388 159.072C212.334 159.037 212.275 159.01 212.215 158.986C212.207 158.981 212.199 158.977 212.192 158.973C212.13 158.961 212.066 158.953 212.003 158.95C211.754 158.95 211.503 158.936 211.256 158.959C211.116 159.013 210.718 159.159 210.65 159.197C209.896 159.462 209.698 159.327 209.032 159.571C207.385 160.149 206.26 161.366 204.931 162.468C203.371 163.844 201.729 164.684 200.83 166.285C199.221 169.007 197.839 172.068 197.332 175.484C197.145 177.09 197.068 178.709 196.99 180.323C196.884 183.433 196.642 186.536 196.55 189.647C196.547 189.907 196.546 190.195 196.545 190.501C196.833 189.797 197.12 189.093 197.415 188.393C198.446 185.876 199.612 182.006 200.79 178.843C200.902 178.527 201.004 178.207 201.112 177.89C201.012 178.316 200.917 178.742 200.801 179.164C199.784 183.091 198.872 187.051 197.361 190.827C197.106 191.493 196.88 192.172 196.617 192.835C197.47 192.428 198.235 192.099 198.814 191.744ZM195.481 193.082C195.714 192.528 195.941 191.97 196.169 191.413C195.922 188.565 195.863 185.703 195.896 182.843C195.863 180.686 195.867 178.521 196.08 176.372C196.325 174.74 196.734 173.125 197.291 171.572C197.859 169.955 198.634 168.425 199.474 166.934C199.997 165.998 200.472 165.011 201.263 164.267C201.994 163.479 203.398 162.418 203.994 161.991C204.695 161.436 205.374 160.855 206.058 160.279C206.241 160.128 206.426 159.977 206.612 159.829C205.261 160.475 203.903 161.102 202.552 161.729C199.517 163.031 196.473 164.312 193.381 165.471C191.456 166.184 189.542 166.997 187.506 167.331C185.5 167.673 183.463 167.637 181.437 167.663C179.611 167.88 177.784 168.236 175.935 168.15C173.334 167.983 170.73 167.804 168.145 167.465C167.548 167.308 167.027 167.145 166.527 166.99C168.408 169.47 170.393 171.913 172.164 173.901C175.159 177.245 178.385 180.372 181.636 183.465C185.56 187.317 190.188 190.316 194.741 193.358C194.892 193.459 195.045 193.559 195.196 193.659C195.316 193.439 195.43 193.236 195.481 193.082ZM220.367 203.548C221.454 202.613 222.483 201.618 223.486 200.592C226.402 197.837 227.347 195.113 229.33 191.063C230.532 188.463 231.616 185.868 232.209 183.196C233.034 178.835 232.961 174.308 234.283 170.043C234.31 169.968 234.333 169.892 234.358 169.817C232.241 171.9 229.841 173.68 227.656 175.691C225.511 177.811 223.679 179.809 222.234 182.466C221.518 183.818 220.567 185.846 220.122 187.599C219.675 189.257 219.505 191.224 219.323 193.055C218.798 196.294 218.392 199.564 218.308 202.843C218.321 202.805 218.334 202.764 218.347 202.727C219.496 199.831 220.876 197.031 222.082 194.158C222.86 192.202 223.775 190.241 224.065 188.14C224.121 187.639 224.146 187.136 224.192 186.636C224.213 187.177 224.265 187.717 224.252 188.259C224.095 190.521 223.294 192.693 222.567 194.824C221.734 197.159 220.613 199.926 219.816 201.916C219.472 202.844 219.316 203.784 219.165 204.779C219.546 204.351 219.942 203.936 220.367 203.548ZM218.143 209.272C218.233 209.218 218.323 209.162 218.414 209.105C218.343 209.068 218.272 209.032 218.201 208.995C218.155 209.082 218.11 209.168 218.057 209.253C218.046 209.269 218.033 209.286 218.022 209.303C218.062 209.293 218.103 209.283 218.143 209.272ZM216.67 209.47C216.672 209.455 216.675 209.439 216.678 209.424C216.157 209.486 215.636 209.547 215.114 209.609C215.633 209.562 216.151 209.519 216.67 209.47ZM176.181 223.994C180.241 223.695 184.272 223.126 188.296 222.515C190.425 221.999 194.344 221.151 196.999 220.229C200.886 218.798 204.363 217.286 207.56 215.53C209.955 214.198 212.276 212.741 214.594 211.28C213.485 211.366 212.378 211.459 211.28 211.643C207.888 212.183 204.545 212.835 200.896 213.35C199.309 213.6 197.683 213.678 196.134 214.13C197.281 213.635 198.501 213.346 199.709 213.044C201.353 212.642 202.987 212.199 204.63 211.793C207.361 211.124 210.075 210.371 212.849 209.894C212.989 209.869 213.129 209.848 213.27 209.826C210.547 210.146 207.824 210.457 205.095 210.72C203.263 210.894 201.408 210.84 199.592 211.165C198.208 211.432 195.517 212.26 193.742 212.873C188.852 214.402 183.963 216.06 179.782 219.052C177.703 220.37 175.375 222.057 174.283 223.656C174.189 223.803 174.109 223.924 174.037 224.033C174.748 224.119 175.466 224.057 176.181 223.994Z" fill="#B1C5AA" fill-opacity="0.24"/>
</svg>
