<svg width="175" height="221" viewBox="0 0 175 221" fill="none" xmlns="http://www.w3.org/2000/svg">
<path d="M-5.66458 216.871C-5.61311 216.477 -5.81581 216.124 -5.95954 215.772C-6.24666 215.113 -6.61414 214.491 -7.00792 213.892C-8.25124 212.071 -9.90154 210.594 -11.6514 209.273C-13.8614 207.49 -16.1645 205.815 -18.7204 204.558C-22.0988 202.801 -25.6782 201.481 -29.194 200.031C-30.3716 199.591 -31.5595 199.149 -32.8004 198.924C-34.4142 198.631 -36.0597 198.615 -37.6857 198.422C-41.2806 198.019 -44.8808 197.648 -48.4884 197.376C-48.499 197.29 -48.5093 197.204 -48.5132 197.121C-48.5314 196.872 -48.5648 196.626 -48.6119 196.382C-47.3046 195.829 -45.997 195.277 -44.6911 194.721C-38.5219 192.076 -32.4663 189.169 -26.5849 185.933C-26.2304 186.199 -25.7318 186.19 -25.2991 186.225C-24.1501 186.276 -23.0051 186.182 -21.8675 186.032C-21.2276 186.091 -20.6456 186.199 -20.1804 186.387C-17.6047 187.191 -15.1047 188.222 -12.518 188.989C-8.32869 190.153 -4.05051 190.958 0.20112 191.857C4.53417 192.787 8.92665 192.769 13.3339 192.82C17.9196 192.932 22.6931 192.82 26.8727 190.708C28.4322 190.023 31.9065 188.419 29.8376 186.453C28.7729 185.679 27.5044 185.271 26.3192 184.723C23.8127 183.739 21.3192 182.699 18.7347 181.933C15.4286 180.932 11.9717 180.811 8.55304 180.54C5.40836 180.266 2.24844 180.059 -0.906113 180.288C-4.23101 180.443 -7.47332 181.236 -10.6849 182.059C-13.0089 182.663 -15.3247 183.299 -17.6379 183.943C-19.0908 183.927 -20.5449 184.014 -21.9985 184.1C-22.1505 184.067 -22.3027 184.033 -22.4553 184.004C-22.6521 183.983 -22.8494 183.97 -23.047 183.961C-18.8153 181.591 -14.5868 179.184 -10.8518 176.069C-7.111 173.03 -3.39426 169.948 0.0638922 166.586C2.45615 164.257 4.70943 161.796 6.89932 159.278C7.54095 159.084 8.17736 158.873 8.8117 158.655C8.9878 158.649 9.1639 158.642 9.33939 158.626C9.40992 158.634 9.46456 158.612 9.50329 158.56C9.56319 158.518 9.58489 158.453 9.59415 158.384C10.3858 158.107 11.1765 157.826 11.9726 157.562C13.1682 157.142 14.4086 156.883 15.6272 156.542C16.2081 156.365 16.7792 156.156 17.3655 155.997C18.2762 155.925 19.1897 155.87 20.0932 155.734C23.1156 155.324 26.1871 154.882 29.2411 155.156C32.955 155.867 36.7483 155.561 40.4882 155.241C43.6317 154.951 46.7792 154.728 49.931 154.551C51.4189 154.513 52.9115 154.581 54.391 154.374C57.691 154.021 60.9443 153.29 64.0307 152.063C66.4117 151.246 68.4063 151.006 70.96 150.584C71.5827 150.408 72.3552 150.39 72.8401 149.955C73.321 149.222 72.5388 148.39 72.0691 147.849C70.3407 145.829 67.9316 144.495 65.4942 143.51C62.9978 142.628 60.5286 141.673 58.0582 140.72C56.5822 140.185 55.1239 139.554 53.5673 139.292C50.9993 138.905 48.3973 139.228 45.8172 139.297C42.5918 139.441 39.3554 139.543 36.166 140.084C33.3842 140.49 30.8057 141.682 28.3459 142.995C26.7 143.857 25.1234 144.845 23.5925 145.897C20.5339 147.964 17.657 150.272 14.9219 152.743C13.6377 153.197 12.3669 153.685 11.1423 154.284C13.585 151.422 15.9576 148.502 18.292 145.551C20.8205 142.482 23.1882 139.294 25.5015 136.061C27.6185 133.159 29.7604 130.265 31.6051 127.178C32.0552 126.389 32.4807 125.586 32.902 124.781C32.9555 124.738 33.0064 124.697 33.0626 124.653C34.0207 123.931 34.9306 122.795 35.5896 122.228C36.2555 121.63 37.0963 121.294 37.8514 120.83C40.0606 119.504 42.3917 118.367 44.7773 117.394C46.805 116.616 48.9247 116.133 51.0338 115.635C54.1975 114.932 57.2285 113.799 60.1994 112.52C62.826 111.536 65.4794 110.597 68.1994 109.904C71.427 109.057 74.595 107.986 77.7151 106.806C79.5146 106.241 81.3028 105.636 83.0057 104.816C86.059 103.332 88.8464 101.306 92.0142 100.056C92.8686 99.751 93.7626 99.5777 94.6263 99.303C94.9176 99.1543 95.3883 99.2053 95.51 98.8707C95.5026 97.4256 93.7771 96.9612 92.6241 96.6822C86.245 95.15 79.6081 95.7086 73.2462 97.0385C70.8736 97.4703 68.5039 97.9433 66.21 98.6994C64.0182 99.374 61.9136 100.286 59.8079 101.186C55.8943 102.774 51.9544 104.464 48.607 107.088C45.0313 109.833 41.9046 113.117 38.9832 116.538C38.1957 117.458 37.4216 118.39 36.6801 119.346C36.4243 119.564 36.1701 119.784 35.916 120.004C35.6691 120.142 35.4274 120.289 35.1992 120.455C37.8958 115.444 40.6584 110.467 43.1781 105.364C44.7875 101.967 46.5991 98.6495 47.8818 95.1095C48.8427 92.355 49.6141 89.5384 50.4856 86.7549C51.0572 85.3379 52.1299 82.5252 52.8774 80.6329C53.4018 79.373 54.0166 78.1515 54.6185 76.9243C55.8263 75.7653 57.1698 74.8156 59.0022 74.3536C59.6534 74.2859 61.5245 73.9483 62.5615 73.6823C63.8764 73.3725 65.6835 72.8678 66.6305 72.6998C67.4966 72.5191 68.3869 72.5184 69.2579 72.3748C71.0388 72.1107 72.7975 71.7255 74.5695 71.4119C76.8936 71.0035 79.2337 70.6165 81.4857 69.8976C83.204 69.3394 84.8513 68.5909 86.582 68.0691C89.5032 67.1767 92.3736 66.111 94.9878 64.5074C96.014 63.8997 97.0885 63.3316 97.981 62.5333C98.4642 62.0738 98.7701 61.4674 99.2289 60.986C99.4647 60.7234 99.6681 60.3977 99.6543 60.0338C99.6253 59.562 99.3892 59.0666 99.0014 58.7901C98.7644 58.6316 98.4882 58.7458 98.2265 58.7528C97.7366 58.8059 97.2484 58.8754 96.7595 58.9367C94.7666 59.3021 92.7433 59.2431 90.7284 59.1627C85.6097 58.9362 80.6785 59.2346 75.907 61.264C72.4895 62.6381 69.3051 64.5231 66.209 66.5034C63.1652 68.3717 60.4044 70.6317 57.6682 72.9164C59.6297 71.7253 61.5789 70.5144 63.5367 69.3176C66.0772 67.9613 68.6143 66.5993 71.1651 65.2619C74.4279 63.5847 78.4778 61.7238 81.7238 61.1001C84.4582 60.5636 87.259 60.5045 90.0371 60.546C92.2384 60.5811 94.4609 60.7787 96.6445 60.4082C97.1158 60.3355 97.5884 60.2688 98.0612 60.2064C97.7217 60.6321 97.2855 61.2207 97.2403 61.2192C95.3786 62.6484 93.2361 63.7076 91.1254 64.7199C89.2109 65.5732 87.188 66.1315 85.1993 66.7798C83.6008 67.2639 82.0784 67.9675 80.4727 68.4332C78.6122 68.9989 77.2133 69.2164 75.2693 69.5718C73.0895 69.922 70.9351 70.407 68.7519 70.7373C68.7513 70.7373 68.7505 70.7374 68.7505 70.7374C70.0933 70.3127 71.4569 69.9583 72.8083 69.5572C74.8941 68.9165 77.0019 68.3497 79.097 67.7397C81.1548 67.0066 83.1736 66.1761 85.0982 65.1379C85.5636 64.8854 86.0284 64.631 86.4921 64.3751C85.9785 64.5514 85.4655 64.7294 84.9532 64.9093C82.9799 65.6102 80.3921 66.2882 78.6425 66.7417C76.4399 67.1689 74.2371 67.6166 72.085 68.2567C69.2496 69.0183 66.5593 70.1778 63.8898 71.3843C63.5712 71.5176 63.2566 71.6591 62.9437 71.8033C61.8872 72.0782 60.8309 72.3541 59.7612 72.5751C59.4889 72.6371 58.0062 72.7796 57.1831 73.2198C56.8279 73.3625 56.4884 73.5326 56.1602 73.7202C56.6094 72.8039 57.0714 71.8942 57.5674 71.0017C59.658 66.9951 61.8666 63.0587 64.2392 59.2117C65.0161 57.9251 65.8247 56.6594 66.6516 55.4057C66.6926 55.3917 66.7344 55.3744 66.7774 55.351C67.4979 54.5995 68.2636 53.8892 68.9693 53.1219C69.9705 52.0555 70.9133 50.9311 71.7807 49.7536C71.8522 49.6576 71.921 49.5598 71.9886 49.4612C72.2394 49.3206 72.494 49.1871 72.7599 49.0753C78.7836 46.6901 84.6358 43.8718 90.7673 41.7584C94.0685 40.5963 96.8374 38.3676 99.3883 36.0309C102.485 33.1982 105.736 30.5446 108.864 27.748C111.766 25.3594 114.695 22.8209 118.26 21.4905C118.997 21.2029 119.29 21.2471 120.156 21.2403C120.468 21.25 120.811 21.2578 121.067 21.0491C121.232 20.9412 121.198 20.7069 121.167 20.5374C121.088 20.2096 120.913 19.9009 120.653 19.6832C120.181 19.4356 119.586 19.4407 119.06 19.3962C115.923 19.2897 112.805 19.7202 109.69 20.0179C105.676 20.4076 101.648 20.9987 97.9054 22.5704C93.8628 24.1616 89.7955 25.8789 86.3745 28.612C84.1033 30.3245 82.2177 32.458 80.3321 34.5711C78.0146 37.154 75.8467 39.8552 73.7941 42.6529C71.6175 45.5214 69.4966 48.429 67.4528 51.3908C67.5845 50.659 67.6819 49.9205 67.7596 49.1851C67.8621 47.797 67.9081 46.3752 67.5861 45.0113C66.0685 39.9127 62.0787 35.6097 57.0137 33.909C55.2913 33.2872 53.5649 32.6107 51.7313 32.4106C50.4044 32.2381 49.0614 32.3209 47.7272 32.2641C46.4299 32.3179 44.8745 32.5791 43.9215 32.7605C42.9762 33.1989 44.3731 35.651 44.6857 36.3024C44.9883 36.9901 45.2727 37.726 45.5697 38.4328C46.1345 39.7218 46.5037 41.1162 47.32 42.2794C48.4512 43.6492 49.9718 44.6551 51.4149 45.67C53.506 47.1043 55.5152 48.666 57.6852 49.9826C59.1901 50.6968 60.7618 51.2752 62.2862 51.9504C63.3262 52.4328 64.2433 53.1812 65.0713 53.9592L65.0718 53.9598C65.1378 54.1457 65.2456 54.3118 65.3779 54.4579C64.9456 55.1107 64.5164 55.7658 64.0926 56.4245C62.6864 58.7618 61.2854 61.1022 59.8813 63.4408C57.8694 67.2232 55.749 70.9495 53.9432 74.8374C53.7458 75.2465 53.5484 75.6556 53.3506 76.0645C53.3051 76.1153 53.2578 76.1647 53.2128 76.2158C52.6723 76.8146 52.1397 77.4203 51.6115 78.0302C51.9558 75.5992 51.7263 73.0871 50.9907 70.748C50.5177 68.8317 49.8281 66.979 48.9418 65.2155C47.3396 61.8958 44.6323 59.2952 41.966 56.8185C39.8789 54.9754 37.6902 53.2094 35.2468 51.8581C33.2655 50.8547 31.2252 49.8874 29.0738 49.3144C26.2606 48.7181 23.3434 48.735 20.4896 48.9827C19.0893 49.1496 17.7099 49.4592 16.3118 49.6453C16.1948 49.6828 16.0344 49.6343 15.9495 49.7336C15.7675 49.9303 15.8933 50.2596 15.9673 50.4852C16.3671 51.5009 17.2556 52.2005 17.9908 52.969C19.7897 54.8476 21.6251 56.7352 22.9504 58.9918C25.2744 62.7828 28.222 66.261 31.7424 68.9922C33.48 70.2861 35.4019 71.3067 37.2329 72.4595C37.9877 73.0835 40.2595 74.4123 41.5989 75.1975C43.2476 76.1201 44.4452 77.6194 45.9353 78.7533C46.8916 79.4823 48.0287 80.0059 48.8486 80.8989C49.1155 81.2447 49.2682 81.6613 49.5052 82.0261C49.7349 82.4052 50.0339 82.8782 50.2149 83.436C49.8685 84.3261 49.5329 85.2199 49.2259 86.1235C48.0712 89.7607 47.249 93.1589 45.7738 96.4039C42.8191 102.835 39.5585 109.119 36.1732 115.333C34.7587 117.929 33.3771 120.544 31.9959 123.158C31.3873 119.046 30.5629 114.971 29.7419 110.897C28.4928 104.3 26.1178 97.8181 21.9982 92.457C19.4235 89.184 16.013 86.6805 12.6714 84.2438C10.0021 82.3536 7.29182 80.4884 4.31299 79.1139C0.959937 77.4804 -2.58047 76.3129 -6.17881 75.357C-7.69078 74.9675 -9.20796 74.5746 -10.7487 74.3174C-11.1845 74.2363 -11.6236 74.179 -12.0665 74.1557C-12.1592 74.1616 -12.2571 74.2096 -12.2695 74.3098C-12.2951 74.5375 -12.2726 74.7634 -12.224 74.9867C-12.4286 74.8713 -12.6339 74.7574 -12.8374 74.64C-12.621 74.7932 -12.4083 74.951 -12.1949 75.1084C-12.06 75.6167 -11.7883 76.1074 -11.5549 76.5597C-11.177 77.2169 -10.9644 77.9732 -10.7445 78.7218C-9.55019 82.7417 -8.80802 86.9247 -7.12417 90.7821C-4.91674 95.3991 -1.86046 99.5399 1.31479 103.529C4.07055 107.043 7.25544 110.201 10.5925 113.162C11.3993 113.984 12.4112 114.549 13.4007 115.119C14.9832 116.062 16.6771 116.812 18.4638 117.271C20.4396 117.851 22.2655 117.779 23.9181 118.599C24.7013 118.935 25.4583 119.328 26.2287 119.692C26.7658 119.959 27.3833 120.17 27.8071 120.59C28.8821 121.845 29.2345 123.733 30.3869 124.994C30.3664 125.017 30.3444 125.04 30.3241 125.064C30.1141 125.314 29.7856 125.543 29.9165 125.91C29.9236 126.042 30.0264 126.268 30.1652 126.46C28.9597 128.424 27.6473 130.324 26.2957 132.189C24.2935 134.911 22.3573 137.684 20.3178 140.377C16.2552 145.508 12.1615 150.613 7.90103 155.582C7.68633 155.843 7.46319 156.108 7.24087 156.372C6.80743 156.206 6.37387 156.04 5.93908 155.879C4.9238 153.344 3.78063 150.863 2.36438 148.522C0.681169 145.512 -1.39525 142.746 -3.85906 140.33C-5.16495 138.964 -6.50043 137.625 -7.92045 136.377C-8.9621 135.438 -10.0198 134.495 -11.262 133.826C-14.8764 132.008 -18.8213 130.972 -22.6808 129.811C-26.4075 128.647 -30.1917 127.685 -34.063 127.147C-36.0617 126.919 -38.0502 126.552 -40.0612 126.458C-41.8624 126.474 -43.6432 126.846 -45.3836 127.285C-47.6026 127.843 -49.7219 128.719 -51.9064 129.393C-51.9735 129.417 -52.0436 129.431 -52.1127 129.448C-52.4013 129.52 -52.6901 129.591 -52.9789 129.663C-53.0021 129.667 -53.0252 129.673 -53.0489 129.675C-53.2773 129.709 -53.5343 129.698 -53.7222 129.847C-54.3794 130.419 -53.801 131.411 -53.266 131.862C-51.7241 132.953 -50.6142 134.718 -49.5942 136.375C-48.8423 137.53 -47.9159 138.562 -46.9829 139.572C-44.3935 142.38 -41.355 144.646 -38.1518 146.678C-38.1908 146.67 -38.2287 146.658 -38.2675 146.65C-38.3235 146.651 -38.4633 146.61 -38.4989 146.598C-38.9313 146.478 -39.2937 146.171 -39.7449 146.109C-40.8332 145.95 -41.2911 146.103 -41.6637 147.206C-42.9942 150.512 -42.7073 154.204 -41.7962 157.582C-41.2846 159.629 -40.9366 161.714 -40.4575 163.769C-40.1313 165.469 -40.1012 166.535 -39.892 168.26C-39.5932 170.282 -38.7929 172.195 -37.6111 173.858C-36.9214 174.917 -36.2824 176.013 -35.4742 176.988C-34.3945 178.254 -33.1417 179.361 -31.9696 180.539C-30.5794 181.83 -29.1957 183.154 -27.4755 183.999C-27.4068 184.036 -27.338 184.073 -27.2693 184.11C-27.2751 184.167 -27.2808 184.224 -27.2865 184.28C-32.0078 186.865 -36.8255 189.273 -41.7479 191.453C-44.1762 192.564 -46.6315 193.619 -49.0988 194.65C-49.1494 193.915 -49.2098 193.111 -49.3067 192.348C-48.7 189.01 -48.5873 185.588 -48.7346 182.197C-48.7251 180.267 -48.6334 178.331 -48.9681 176.418C-49.3109 174.257 -50.0462 172.167 -50.9056 170.16C-52.2525 166.989 -54.3561 164.214 -56.6177 161.642C-58.7297 159.399 -61.3593 157.055 -63.1934 154.85C-63.1182 154.933 -63.2398 154.796 -63.2768 154.743C-63.4035 154.575 -63.5491 154.42 -63.7153 154.29C-63.9162 154.11 -64.3748 153.968 -64.4821 154.29C-64.5408 154.435 -64.5227 154.608 -64.4871 154.76C-64.3479 155.479 -64.1469 156.183 -63.988 156.897C-63.1825 161.138 -63.6709 165.832 -63.0031 170.235C-62.5028 173.094 -61.5839 175.861 -60.5689 178.573C-59.7574 180.737 -58.9357 182.9 -57.96 184.996C-56.3689 188.359 -53.1422 191.328 -51.0347 193.855C-50.8357 194.13 -50.6189 194.449 -50.4331 194.736C-50.4213 194.886 -50.4071 195.036 -50.3905 195.186C-50.8582 195.38 -51.3253 195.574 -51.7936 195.766C-51.8293 195.736 -51.8643 195.707 -51.9006 195.676C-52.3813 195.313 -52.5669 195.668 -52.544 196.074C-62.0536 199.971 -71.6439 203.705 -80.488 208.969C-75.5361 206.992 -70.4891 205.269 -65.5102 203.363C-60.8593 201.504 -56.2306 199.588 -51.6125 197.647C-51.4113 197.828 -51.1944 197.994 -50.9775 198.15C-50.9608 198.161 -50.9436 198.172 -50.9269 198.183C-50.5592 198.496 -50.1538 198.832 -49.8308 199.066C-49.0919 199.668 -47.8488 200.335 -47.6176 200.507C-45.1345 202.398 -42.6284 204.26 -40.0501 206.02C-36.6192 208.27 -33.0015 210.229 -29.2455 211.881C-26.39 213.035 -23.4155 213.869 -20.4713 214.764C-17.144 215.489 -13.8208 216.253 -10.4523 216.763C-8.95425 216.965 -7.43694 217.415 -5.92429 217.116C-5.77806 217.13 -5.68084 217 -5.66458 216.871ZM-8.40865 183.081C-3.36988 182.11 1.77149 181.621 6.89595 182.095C10.5678 182.475 14.2987 182.475 17.9028 183.34C20.8944 184.066 25.6892 185.988 28.6823 187.359C27.9006 188.116 26.6849 188.551 25.5702 189.101C21.6306 190.995 17.5059 191.034 13.044 190.931C9.39062 190.808 5.70815 190.924 2.08966 190.329C-0.607994 189.913 -3.26433 189.282 -5.93241 188.715C-8.63941 188.149 -10.5206 187.747 -13.1084 187.016C-14.3684 186.652 -15.6173 186.19 -16.8678 185.73C-16.5847 185.731 -16.3015 185.732 -16.0187 185.741C-12.5182 185.965 -9.05089 186.556 -5.55941 186.886C-3.224 187.127 -0.871549 187.174 1.47338 187.276C2.39972 187.299 3.32601 187.318 4.25218 187.335C3.48566 187.21 2.71899 187.086 1.95208 186.965C-0.529445 186.552 -3.01909 186.181 -5.49721 185.752C-8.59578 185.161 -11.6929 184.535 -14.8233 184.137C-12.6819 183.806 -10.5442 183.45 -8.40865 183.081ZM44.9719 114.544C49.0854 111.903 53.6934 110.214 58.2075 108.401C59.6747 107.868 61.1781 107.435 62.6651 106.96C61.7522 107.079 59.6129 107.52 58.2912 107.799C53.6405 109.124 48.906 110.458 44.74 112.984C43.892 113.47 43.0959 114.029 42.326 114.624C42.3888 114.565 42.4521 114.506 42.515 114.447C45.3224 111.9 48.1538 109.344 51.2994 107.217C55.2931 104.642 59.8078 103.052 64.1623 101.208C68.6136 99.4494 72.472 98.8318 76.896 98.0037C80.9172 97.3236 85.0239 97.0098 89.0865 97.4939C90.4262 97.6608 91.7698 97.827 92.9814 98.1185C91.8537 98.4238 90.7367 98.7672 89.7024 99.3245C86.943 100.678 84.3852 102.42 81.5778 103.673C80.1039 104.339 78.5677 104.838 77.0243 105.312C75.4558 105.911 73.8727 106.465 72.2711 106.968C69.5762 107.949 66.7529 108.498 64.0386 109.408C62.5839 109.925 61.1061 110.383 59.6657 110.937C57.959 111.617 56.2825 112.38 54.5373 112.958C50.3395 114.344 45.856 114.845 41.8651 116.827C42.8532 116.002 43.867 115.211 44.9719 114.544ZM73.3379 47.4892C74.1262 46.5774 75.0202 45.7668 75.8567 44.9014C77.204 43.4571 78.2022 42.3835 79.6119 41.093C80.5837 40.2768 81.5348 39.4276 82.6101 38.7473C84.3766 37.7174 86.2263 36.8372 88.0374 35.894C90.6194 34.2078 93.1033 32.3726 95.6136 30.5822C97.8072 28.9752 100.052 27.4217 102.037 25.5543C99.7775 27.1324 97.3278 28.4047 94.9639 29.8145C92.3729 31.3118 89.853 32.9274 87.3031 34.4913C86.0266 35.1265 84.728 35.7133 83.4912 36.4289C82.356 36.9893 81.2765 37.6463 80.303 38.4592C78.5378 39.8782 76.9546 41.4923 75.424 43.1563C76.3432 41.9362 77.2644 40.7179 78.206 39.515C79.6001 37.9024 80.9805 36.2772 82.4115 34.6969C85.6187 30.9247 89.6332 27.9212 94.3859 25.8717C97.8493 24.342 101.745 22.717 105.163 22.2069C107.606 21.8147 110.067 21.5578 112.528 21.3091C113.467 21.2056 114.406 21.1094 115.348 21.0338C115.211 21.1085 115.075 21.1841 114.94 21.2592C111.479 23.2637 108.477 25.9548 105.482 28.5811C102.771 30.864 100.089 33.1793 97.4363 35.5296C95.3045 37.3537 92.9803 39.0192 90.3296 39.9958C87.8502 40.8788 85.3626 41.7634 82.9593 42.8394C79.8105 44.2497 76.7854 45.9025 73.7872 47.6049C73.4878 47.7707 73.1835 47.929 72.882 48.0925C73.0249 47.8849 73.1743 47.682 73.3379 47.4892ZM65.4052 53.1919C64.5994 52.2275 63.5796 51.4142 62.519 50.7434C61.0373 49.9794 59.4651 49.3926 57.9208 48.7674C55.9586 47.7776 54.0876 46.2666 52.2615 45.0216C50.8342 44.0587 49.4121 43.0859 48.1234 41.9393C47.6531 41.5504 47.4138 41.0135 47.1965 40.4758C46.6018 38.961 46.0047 37.4449 45.3491 35.9555C45.1438 35.5564 44.9167 35.1274 44.7614 34.7177C47.0317 36.0741 49.3649 37.3855 51.9226 38.1059C53.0217 38.4252 54.1644 38.5537 55.2707 38.8435C56.614 39.2318 57.9455 39.7046 59.1849 40.3561C59.7055 40.6883 60.116 41.161 60.5603 41.5834C60.4192 41.4022 60.2782 41.2211 60.1369 41.04C59.387 39.9304 58.2052 39.2909 57.0621 38.6586C56.1146 38.1872 55.1516 37.7339 54.1231 37.4677C53.0439 37.1617 51.9332 36.9905 50.8508 36.6964C48.7622 36.1413 46.7471 35.355 44.7213 34.6088C44.6781 34.485 44.6412 34.3632 44.6157 34.2454C44.6253 34.2411 44.637 34.2357 44.6526 34.2284C44.6851 34.2149 44.7187 34.2048 44.7535 34.1983C44.4706 34.2265 45.0791 34.1611 45.1565 34.1225C45.6279 34.14 47.099 33.7911 47.9536 33.7928C49.1753 33.7834 50.4015 33.7995 51.6223 33.8437C53.5221 33.9924 54.7367 34.4048 56.5175 35.0409C59.974 36.1294 63.1259 38.0908 65.0715 41.2179C65.7535 42.3151 66.4016 43.4715 66.7392 44.7257C66.987 45.853 66.9457 47.0268 66.8805 48.1724C66.7555 49.6315 66.4957 51.0785 66.1063 52.4907C65.9312 52.0721 65.7367 51.661 65.5349 51.2569C64.5249 49.2792 62.576 47.8622 61.9759 45.67C61.672 44.7877 61.53 43.866 61.3759 42.9489C61.4029 43.2344 61.4235 43.5209 61.4483 43.8069C61.553 44.9776 61.8165 46.1505 62.3128 47.2196C62.9351 48.3862 63.7778 49.4186 64.5071 50.5179C64.8902 51.1037 65.1871 51.7392 65.4255 52.3963C65.5309 52.7398 65.8302 53.1842 65.6253 53.5115C65.5417 53.373 65.4589 53.2575 65.4052 53.1919ZM48.8276 79.9152C47.9005 78.909 46.6791 78.241 45.6467 77.3558C44.6429 76.4851 43.7531 75.4893 42.7339 74.6372C41.5897 73.7635 40.3101 73.0889 39.0713 72.3618C38.5591 72.0987 37.8556 71.5325 37.0397 71.0081C35.9869 70.3686 34.9276 69.7381 33.8739 69.0998C29.0914 66.3218 25.5444 61.8627 22.7165 57.1926C21.1871 54.9589 19.2419 53.0674 17.4002 51.1001L17.4005 51.1C17.4488 51.0932 17.4968 51.0851 17.5449 51.0778C19.3823 51.9565 21.2677 52.7328 23.1008 53.6199C25.3514 54.761 27.5404 56.0235 29.7959 57.158C27.5599 55.6132 25.3296 54.023 22.9137 52.77C21.3797 52.0365 19.7642 51.5036 18.1468 50.9812C19.2662 50.7893 20.3782 50.5468 21.5113 50.4575C24.2343 50.2433 27.0158 50.2354 29.697 50.8103C31.1717 51.2006 33.4969 52.2116 35.2338 53.0766C37.851 54.4585 40.1545 56.3658 42.3598 58.3224C44.2319 60.1086 46.1514 61.9174 47.5518 64.1105C48.7211 66.0516 49.5875 68.17 50.1403 70.3667C51.0253 73.088 51.1383 76.0584 50.4029 78.8288C50.3114 79.1887 50.1831 79.5387 50.0315 79.878C49.5835 79.2235 49.1058 78.5864 48.7322 77.9029C48.3221 77.2655 48.185 76.6525 48.0727 75.8785C47.7954 74.612 47.7017 73.303 47.3374 72.0592C46.6745 70.2559 45.3473 68.8014 44.1054 67.3724C40.9037 63.6808 36.6948 61.1242 32.6834 58.4176C35.434 60.677 38.4379 62.8968 41.0073 65.2352C43.0368 67.2126 45.5028 69.8489 46.5039 71.7237C46.8922 72.6764 46.9885 73.9354 47.305 75.0807C47.5327 76.1121 47.7314 77.1735 48.3523 78.0544C48.7991 78.809 49.3565 79.4663 49.8831 80.1399C49.7732 80.3117 49.6769 80.4906 49.6072 80.6774C49.5978 80.6918 49.5902 80.7075 49.5805 80.722C49.5829 80.7256 49.5855 80.7291 49.5877 80.7325C49.5704 80.7834 49.5538 80.8345 49.5407 80.8863C49.5407 80.9254 49.545 80.9657 49.5498 81.006C49.3512 80.6159 49.1281 80.2399 48.8276 79.9152ZM51.4247 80.3892C51.271 80.7776 51.1164 81.1656 50.9617 81.5532C50.9121 81.4188 50.8592 81.2857 50.8001 81.155C50.9922 80.8883 51.2024 80.6342 51.4247 80.3892ZM49.9295 81.7744C50.0139 81.8489 50.1099 81.9064 50.2168 81.9377C50.2879 81.9449 50.3327 81.9051 50.37 81.8553C50.3703 81.8561 50.3708 81.8564 50.371 81.8569C50.3728 81.8531 50.3752 81.8495 50.3771 81.8459C50.3968 81.8178 50.4151 81.788 50.4328 81.7599C50.5273 81.6142 50.6105 81.4617 50.6893 81.3072C50.7615 81.4462 50.8276 81.5881 50.8908 81.7314C50.7446 82.0979 50.5981 82.4643 50.4531 82.8315C50.3033 82.4687 50.1211 82.1183 49.9295 81.7744ZM29.8161 122.473C29.092 120.97 28.2879 119.281 26.6776 118.572C25.3248 117.967 24.0155 117.255 22.6134 116.767C21.3827 116.363 20.0735 116.305 18.8157 116.02C16.5602 115.553 13.7134 114.25 11.4959 112.726C9.34505 110.942 8.01121 109.581 5.96461 107.617C4.42679 105.869 2.89058 104.335 1.80737 102.898C-1.05426 99.3108 -3.81502 95.6189 -5.94021 91.5376C-7.70253 88.0478 -8.26116 84.5411 -9.3404 80.8116C-9.73338 79.4554 -10.0307 78.0601 -10.6025 76.764C-10.7296 76.4637 -10.8992 76.1915 -11.0398 75.9126C-9.19141 77.1506 -7.59132 78.7094 -5.92259 80.1723L-5.86396 80.2246C-5.65439 80.4386 -5.4448 80.6525 -5.23487 80.866C-4.16852 81.9 -3.57757 83.1581 -2.55589 84.3623C-1.83532 85.2989 -0.940476 86.0745 -0.14 86.9391C1.28221 88.6262 2.79654 90.2333 4.58462 91.5383C5.74759 92.4519 6.949 93.3175 8.164 94.16C9.13977 94.7657 10.1686 95.2817 11.1385 95.8974C12.9766 97.0431 14.6661 98.4114 16.263 99.8704C14.4267 97.9026 12.426 96.0754 10.1897 94.5699C8.42734 93.4814 6.81562 92.1896 5.22527 90.868C4.53439 90.29 3.85948 89.6931 3.16508 89.1194C2.0596 88.0847 1.09016 86.9172 0.0802619 85.7911C-0.855635 84.8214 -1.884 83.9426 -2.71122 82.8716C-3.0244 82.4957 -4.13337 80.8386 -4.91198 80.1662C-5.77903 79.3176 -6.75125 78.591 -7.71741 77.8602C-8.65978 77.1286 -9.62122 76.4156 -10.667 75.8371C-10.7131 75.813 -10.7585 75.7873 -10.8044 75.7631C-10.3595 75.8359 -9.91591 75.9176 -9.47069 75.9911C-8.59326 76.1654 -6.62524 76.6709 -6.22019 76.7509C-2.40539 77.7803 1.35724 79.005 4.90235 80.7704C7.44067 81.9677 9.77489 83.5357 12.0635 85.1487C15.4014 87.5412 18.9002 90.0477 21.4852 93.2012C25.0256 97.7203 27.0539 103.125 28.4136 108.71C29.4597 113.197 30.6397 117.65 31.7057 122.132C31.4409 121.237 31.1403 120.399 31.0081 119.86C30.3309 117.467 29.3758 115.133 28.0969 112.998C26.0709 109.77 23.4723 106.952 21.0074 104.061C20.4269 103.399 19.8446 102.739 19.2614 102.08C19.7381 102.719 20.216 103.358 20.6949 103.996C23.1812 107.447 26.0124 110.715 28.004 114.471C28.9568 116.389 29.6738 118.49 30.2742 120.596C30.4858 121.212 30.6876 121.776 30.8286 122.386C30.9992 122.93 31.131 123.863 31.0304 124.228C30.3551 123.798 30.2443 123.28 29.8161 122.473ZM18.4307 154.046C17.8335 154.062 17.242 154.136 16.6578 154.25C16.235 154.287 15.8123 154.324 15.3899 154.366C15.3767 154.368 15.3639 154.371 15.3505 154.373C16.2437 154.047 17.1453 153.742 18.0429 153.438C20.4069 152.581 22.7086 151.533 25.1564 150.925C29.9388 149.733 34.3862 148.862 39.3482 148.184C41.4446 147.891 43.5456 147.641 45.6468 147.387C44.9042 147.327 42.519 147.33 41.2125 147.349C35.4163 147.406 29.5973 148.021 23.9903 149.527C21.6996 150.127 19.5375 151.11 17.3159 151.912C17.2015 151.952 17.0866 151.992 16.9722 152.031C19.7487 150.166 22.5764 148.379 25.4586 146.676C29.1971 144.492 33.3313 142.099 37.3567 141.638C39.8645 141.248 42.3998 141.13 44.9323 141.02C48.1693 140.973 51.4552 140.457 54.6641 141.054C56.9105 141.627 60.0874 143.013 62.7007 143.979C64.5825 144.709 66.5441 145.257 68.3006 146.277C69.4566 146.907 70.5513 147.662 71.4701 148.602C70.7305 148.848 69.6461 149.03 68.6457 149.165C67.2902 149.402 65.9277 149.622 64.5951 149.969C63.2615 150.307 61.9995 150.86 60.6909 151.273C58.0734 152.049 55.8994 152.407 53.1165 152.688C51.8386 152.825 50.554 152.742 49.2727 152.781C46.0584 152.941 42.8501 153.173 39.6452 153.464C36.374 153.727 33.0708 154.013 29.8055 153.545C26.4404 152.926 22.988 153.449 19.6353 153.933C19.3256 153.977 19.0151 154.015 18.7045 154.05C18.6126 154.05 18.5218 154.044 18.4307 154.046ZM-44.4859 140.759C-45.97 139.434 -47.3609 137.998 -48.6002 136.442C-49.7709 134.763 -50.7413 132.958 -52.2296 131.518C-52.3297 131.408 -52.4349 131.302 -52.5428 131.2C-52.0178 131.097 -51.3232 130.905 -50.5673 130.673C-49.3792 130.909 -48.2438 131.352 -47.0827 131.697C-43.5791 132.585 -40.2004 134.078 -37.1474 135.858C-33.077 137.749 -29.1283 139.889 -25.0802 141.821C-22.3905 142.966 -19.6256 143.926 -16.8545 144.854C-19.6908 143.547 -22.5425 142.269 -25.3301 140.86C-29.119 138.785 -32.8189 136.53 -36.77 134.764C-37.8085 134.347 -38.7344 133.711 -39.7636 133.276C-41.9134 132.316 -44.1553 131.551 -46.4733 131.121C-47.6196 130.939 -48.748 130.633 -49.8929 130.461C-48.7498 130.094 -47.5408 129.673 -46.5954 129.346C-44.9077 128.832 -43.444 128.455 -41.9229 128.224C-40.1398 127.878 -38.3355 128.031 -36.5549 128.305C-34.1612 128.601 -31.7728 128.94 -29.4094 129.426C-26.329 130.029 -23.5128 131.009 -20.2795 131.933C-18.1938 132.554 -16.1073 133.187 -14.0777 133.976C-12.7417 134.502 -11.3648 134.985 -10.1728 135.803C-8.19764 137.256 -6.43872 138.988 -4.72048 140.731C-3.4414 142.066 -2.1181 143.365 -0.948271 144.8C1.70224 148.194 3.87352 151.925 5.73416 155.802C5.38188 155.673 5.02825 155.547 4.67089 155.432C3.33538 155.016 2.24094 154.117 1.09748 153.346C-1.99699 151.267 -4.96626 148.908 -8.47803 147.556C-9.35237 147.191 -10.2898 147.063 -11.2202 146.929C-10.4585 147.162 -9.6758 147.343 -8.95302 147.686C-4.23951 149.92 -0.569289 153.761 3.8099 156.517C4.24662 156.747 4.72098 156.95 5.21022 157.141C4.73483 157.217 4.26246 157.316 3.79592 157.453C2.601 157.822 1.28859 157.742 -0.212238 157.81C-2.12674 157.784 -4.04594 157.862 -5.95764 157.742C-7.61928 157.606 -9.22994 157.159 -10.8656 156.871C-14.0423 156.654 -16.7908 156.419 -19.4995 155.13C-24.4459 152.922 -29.311 150.518 -34.0086 147.82C-37.7001 145.784 -41.3099 143.549 -44.4859 140.759ZM-29.2782 181.277C-30.9903 179.932 -31.7005 179.161 -33.0249 177.881C-34.4628 176.515 -35.4653 175.498 -36.4404 173.844C-37.3873 172.404 -38.0928 171.401 -38.3881 170.214C-38.8053 168.897 -38.7715 167.742 -38.9933 166.33C-39.2761 164.16 -39.8524 162.045 -40.2822 159.901C-40.5191 158.656 -40.9254 157.451 -41.1724 156.208C-41.5229 154.109 -41.7406 151.77 -41.0814 149.619C-40.7784 148.772 -40.8147 148.374 -40.342 147.725C-40.3178 147.709 -40.2994 147.688 -40.2886 147.673C-40.2742 147.663 -40.2617 147.65 -40.2459 147.641C-40.1891 147.61 -40.1282 147.588 -40.0666 147.568C-40.0582 147.564 -40.0504 147.561 -40.0427 147.558C-39.9794 147.551 -39.9159 147.548 -39.8525 147.549C-39.6046 147.569 -39.3532 147.575 -39.1081 147.617C-38.9737 147.682 -38.5878 147.859 -38.5225 147.902C-37.7916 148.225 -37.5841 148.106 -36.939 148.402C-35.3433 149.108 -34.317 150.408 -33.0779 151.611C-31.6307 153.106 -30.0599 154.072 -29.2892 155.738C-27.8988 158.579 -26.7621 161.739 -26.5246 165.184C-26.4634 166.8 -26.5141 168.419 -26.5633 170.035C-26.7015 173.144 -26.704 176.256 -26.8564 179.364C-26.8736 179.624 -26.8948 179.911 -26.9184 180.216C-27.1497 179.492 -27.3807 178.768 -27.6197 178.046C-28.4505 175.456 -29.3091 171.506 -30.2355 168.261C-30.3217 167.937 -30.3988 167.611 -30.4817 167.286C-30.4156 167.718 -30.3534 168.151 -30.271 168.58C-29.5658 172.575 -28.9675 176.595 -27.757 180.477C-27.555 181.161 -27.3833 181.856 -27.1733 182.537C-27.9915 182.065 -28.7288 181.677 -29.2782 181.277ZM-26.0598 182.873C-26.2487 182.302 -26.4314 181.729 -26.6147 181.155C-26.1451 178.336 -25.8623 175.487 -25.6703 172.633C-25.4684 170.485 -25.3026 168.326 -25.3461 166.168C-25.4623 164.521 -25.7434 162.88 -26.1767 161.287C-26.6157 159.63 -27.2687 158.044 -27.9889 156.492C-28.4369 155.518 -28.8327 154.497 -29.563 153.693C-30.2297 152.85 -31.5465 151.682 -32.1066 151.21C-32.7616 150.601 -33.3938 149.969 -34.03 149.341C-34.2009 149.176 -34.3729 149.012 -34.5467 148.849C-33.2508 149.599 -31.946 150.331 -30.6488 151.062C-27.7257 152.598 -24.7915 154.114 -21.7993 155.512C-19.937 156.374 -18.0918 157.335 -16.089 157.827C-14.1155 158.325 -12.0823 158.45 -10.065 158.635C-8.26082 158.994 -6.46815 159.492 -4.61813 159.552C-2.01207 159.589 0.598789 159.615 3.20201 159.48C3.80949 159.371 4.34168 159.249 4.85267 159.133C2.78288 161.458 0.6115 163.738 -1.30968 165.581C-4.55779 168.68 -8.01959 171.544 -11.5034 174.372C-15.7175 177.904 -20.5665 180.531 -25.344 183.206C-25.5029 183.295 -25.6626 183.383 -25.8218 183.471C-25.9233 183.241 -26.0214 183.03 -26.0598 182.873ZM-51.6903 191.353C-52.7006 190.336 -53.649 189.263 -54.5678 188.162C-57.2589 185.186 -57.987 182.397 -59.646 178.204C-60.6408 175.517 -61.518 172.846 -61.8989 170.135C-62.3792 165.722 -61.9514 161.215 -62.9343 156.86C-62.9552 156.783 -62.9718 156.705 -62.9916 156.628C-61.0444 158.871 -58.7914 160.835 -56.7715 163.011C-54.799 165.292 -53.1295 167.428 -51.8975 170.19C-51.2895 171.594 -50.5008 173.69 -50.1947 175.473C-49.8793 177.161 -49.864 179.135 -49.8266 180.974C-49.557 184.245 -49.4091 187.537 -49.583 190.812C-49.5931 190.773 -49.6023 190.731 -49.6128 190.693C-50.5307 187.717 -51.6869 184.817 -52.6635 181.858C-53.2856 179.846 -54.0434 177.821 -54.1679 175.703C-54.1846 175.199 -54.1699 174.696 -54.1761 174.193C-54.2401 174.731 -54.3343 175.266 -54.3637 175.807C-54.3851 178.074 -53.7565 180.302 -53.1996 182.484C-52.5522 184.877 -51.6518 187.723 -51.0138 189.77C-50.7431 190.722 -50.6619 191.671 -50.5886 192.675C-50.9348 192.218 -51.2976 191.774 -51.6903 191.353ZM-49.9227 197.234C-50.008 197.173 -50.0939 197.111 -50.1802 197.047C-50.1064 197.016 -50.0329 196.985 -49.9591 196.953C-49.92 197.044 -49.8814 197.134 -49.8352 197.222C-49.8256 197.239 -49.8147 197.257 -49.8046 197.275C-49.8437 197.262 -49.884 197.249 -49.9227 197.234ZM-48.4695 197.548C-48.4709 197.532 -48.4725 197.516 -48.4742 197.501C-47.9594 197.603 -47.4448 197.706 -46.9299 197.808C-47.4429 197.721 -47.9567 197.637 -48.4695 197.548ZM-9.24518 215.204C-13.2697 214.588 -17.2436 213.703 -21.2071 212.779C-23.2889 212.097 -27.1292 210.945 -29.7037 209.817C-33.4665 208.085 -36.8144 206.306 -39.8633 204.304C-42.1462 202.788 -44.3464 201.153 -46.542 199.515C-45.4436 199.687 -44.3467 199.867 -43.2667 200.136C-39.9278 200.942 -36.6459 201.854 -33.0493 202.653C-31.4861 203.028 -29.8721 203.232 -28.3628 203.804C-29.4672 203.222 -30.6612 202.837 -31.8417 202.442C-33.4492 201.912 -35.0433 201.342 -36.6494 200.808C-39.3196 199.927 -41.9662 198.963 -44.6938 198.27C-44.8312 198.234 -44.9697 198.202 -45.108 198.169C-42.4189 198.702 -39.7282 199.226 -37.0283 199.702C-35.2157 200.019 -33.3625 200.111 -31.5771 200.577C-30.2192 200.952 -27.6015 201.989 -25.8793 202.74C-21.1247 204.647 -16.3809 206.684 -12.4475 209.995C-10.4785 211.472 -8.29044 213.336 -7.32675 215.016C-7.24481 215.171 -7.17457 215.297 -7.11129 215.412C-7.82648 215.441 -8.53746 215.324 -9.24518 215.204Z" fill="#B1C5AA" fill-opacity="0.24"/>
</svg>
