<svg width="44" height="46" viewBox="0 0 44 46" fill="none" xmlns="http://www.w3.org/2000/svg">
<g filter="url(#filter0_d_424_2)">
<path d="M21.6667 21.5833C22.7438 21.5833 23.6658 21.1998 24.4328 20.4328C25.1998 19.6658 25.5833 18.7438 25.5833 17.6667C25.5833 16.5896 25.1998 15.6675 24.4328 14.9005C23.6658 14.1335 22.7438 13.75 21.6667 13.75C20.5896 13.75 19.6675 14.1335 18.9005 14.9005C18.1335 15.6675 17.75 16.5896 17.75 17.6667C17.75 18.7438 18.1335 19.6658 18.9005 20.4328C19.6675 21.1998 20.5896 21.5833 21.6667 21.5833ZM21.6667 41.1667C16.4118 36.6951 12.487 32.5418 9.89219 28.7068C7.2974 24.8717 6 21.3222 6 18.0583C6 13.1625 7.57483 9.26215 10.7245 6.35729C13.8741 3.45243 17.5215 2 21.6667 2C25.8118 2 29.4592 3.45243 32.6089 6.35729C35.7585 9.26215 37.3333 13.1625 37.3333 18.0583C37.3333 21.3222 36.0359 24.8717 33.4411 28.7068C30.8464 32.5418 26.9215 36.6951 21.6667 41.1667Z" fill="#BFA880"/>
<path d="M21.667 1C26.0724 1.00008 29.9597 2.55328 33.2871 5.62207C36.6721 8.74405 38.333 12.9274 38.333 18.0586C38.3329 21.5897 36.9312 25.3337 34.2695 29.2676C31.6058 33.2044 27.6079 37.4243 22.3145 41.9287L21.667 42.4795L21.0186 41.9287C15.725 37.4243 11.7272 33.2045 9.06348 29.2676C6.4018 25.3337 5.00007 21.5897 5 18.0586C5 12.9274 6.66179 8.74406 10.0469 5.62207C13.3743 2.55336 17.2615 1 21.667 1ZM21.667 14.75C20.8572 14.75 20.1884 15.0264 19.6074 15.6074C19.0264 16.1884 18.75 16.8572 18.75 17.667C18.7501 18.4765 19.0266 19.1447 19.6074 19.7256C20.1884 20.3066 20.8572 20.583 21.667 20.583C22.4766 20.5829 23.1447 20.3065 23.7256 19.7256C24.3065 19.1447 24.5829 18.4766 24.583 17.667C24.583 16.8572 24.3066 16.1884 23.7256 15.6074C23.1447 15.0266 22.4765 14.7501 21.667 14.75Z" stroke="white" stroke-width="2"/>
</g>
<defs>
<filter id="filter0_d_424_2" x="0" y="0" width="43.3333" height="51.7927" filterUnits="userSpaceOnUse" color-interpolation-filters="sRGB">
<feFlood flood-opacity="0" result="BackgroundImageFix"/>
<feColorMatrix in="SourceAlpha" type="matrix" values="0 0 0 0 0 0 0 0 0 0 0 0 0 0 0 0 0 0 127 0" result="hardAlpha"/>
<feOffset dy="4"/>
<feGaussianBlur stdDeviation="2"/>
<feComposite in2="hardAlpha" operator="out"/>
<feColorMatrix type="matrix" values="0 0 0 0 0 0 0 0 0 0 0 0 0 0 0 0 0 0 0.25 0"/>
<feBlend mode="normal" in2="BackgroundImageFix" result="effect1_dropShadow_424_2"/>
<feBlend mode="normal" in="SourceGraphic" in2="effect1_dropShadow_424_2" result="shape"/>
</filter>
</defs>
</svg>
