<svg width="189" height="69" viewBox="0 0 189 69" fill="none" xmlns="http://www.w3.org/2000/svg">
<path d="M188.925 28.371C188.84 28.0849 188.502 28.1474 188.288 28.0996C187.74 28.0176 187.198 27.8974 186.651 27.8081C185.266 27.5428 183.854 27.4666 182.454 27.3026C180.974 27.1745 179.499 26.9354 178.006 26.978C176.972 26.9854 175.974 27.3618 174.964 27.6164C172.913 28.1442 170.938 29.0309 169.111 30.2784C167.67 31.2487 166.597 31.7526 165.038 32.7604C163.891 33.5924 162.726 34.389 161.577 35.2166C160.346 36.1805 159.166 37.2319 157.943 38.2097C156.112 39.4919 154.172 40.5598 152.229 41.5786C150.863 42.2053 149.453 42.6868 148.076 43.2771C147.187 43.6226 146.295 43.9817 145.501 44.5861C145.344 44.7136 145.129 44.8622 144.963 45.0418C140.66 45.6994 136.33 45.9631 132.01 46.0823C130.281 46.198 128.56 46.0804 126.838 46.0239C125.92 45.9976 125.214 45.969 124.516 45.93C125.067 45.7872 125.527 45.6582 125.709 45.6026C128.749 44.8725 131.788 44.0024 134.686 42.635C135.69 42.0387 136.658 41.4222 137.627 40.7555C137.694 41.133 137.829 41.4862 138.053 41.7875C138.482 42.1855 139.159 42.3545 139.893 42.3322C139.967 42.3995 140.044 42.4633 140.126 42.5208C140.898 42.9868 142.017 42.908 142.698 42.1814C142.977 41.8151 143.087 41.3408 143.25 40.9044C143.428 40.3939 143.574 39.8526 143.576 39.3062C143.589 39.1741 143.601 39.0426 143.613 38.9113C143.907 38.9723 144.342 38.9374 144.414 38.7317C144.503 38.7067 144.59 38.6761 144.672 38.6399C145.262 38.3601 145.526 37.533 145.473 36.855C145.427 36.4937 145.089 36.388 144.815 36.3536C144.291 36.2907 143.766 36.5307 143.372 36.9503C143.361 36.9599 143.351 36.9697 143.34 36.9792C143.07 36.5977 142.683 36.3547 142.256 36.219C142.241 36.2103 142.226 36.1999 142.211 36.1917C142.062 36.0232 141.898 35.8727 141.72 35.7486C141.105 35.3936 140.35 35.5019 139.705 35.7828C139.146 36.0038 138.749 36.539 138.505 37.1647C138.46 37.2239 138.415 37.2826 138.373 37.3451C138.205 37.5359 138.074 37.7437 137.997 37.9648C137.955 38.0346 137.917 38.1076 137.882 38.1851C137.717 38.6484 137.538 39.2328 137.566 39.7486C137.329 39.9432 137.043 40.1519 136.75 40.3597C135.739 41.053 134.735 41.7802 133.675 42.3612C132.697 42.7922 131.007 43.4711 129.648 43.8928C128.04 44.3895 127.148 44.632 125.488 45.0444C124.253 45.3887 123.593 45.589 122.511 45.7927C122.345 45.7799 122.174 45.7665 121.992 45.7522C119.05 45.5947 116.136 45.2162 113.223 44.8101C111.502 44.5877 109.813 44.1625 108.107 43.8469C106.942 43.6103 105.773 43.3894 104.614 43.1226C104.475 43.0635 104.337 43.0046 104.199 42.9458C105.117 42.9146 106.036 42.8714 106.954 42.8396C109.741 42.6006 112.545 42.3995 115.294 41.6764C118.476 40.9277 121.593 39.8073 124.712 38.7295C127.059 37.9666 129.405 37.1876 131.669 36.0968C134.057 34.9791 136.318 33.5046 138.575 32.0592C140.713 30.7246 142.811 29.3012 144.719 27.5387C145.643 26.7007 146.572 25.8695 147.491 25.0234C148.224 24.2533 149.08 23.6038 149.574 22.5881C149.714 22.372 149.888 22.1668 149.916 21.8955C149.953 21.748 149.85 21.6237 149.797 21.5035C149.679 21.3583 149.486 21.3452 149.319 21.3472C148.893 21.3469 148.543 21.6638 148.171 21.8782C147.594 22.2193 147.045 22.6231 146.468 22.9628C144.367 24.0684 142.102 24.5906 139.884 25.2123C139.596 25.2505 139.306 25.2227 139.018 25.2381C138.535 25.2736 138.054 25.3474 137.572 25.3981L137.657 25.3885C135.968 25.5692 134.285 25.8266 132.601 26.0712C131.366 26.1824 130.142 26.4117 128.919 26.6636C127.755 26.8935 126.587 27.1058 125.44 27.4556C121.829 28.3861 118.8 31.0583 115.845 33.5627C114.215 35.0512 112.414 36.2392 110.665 37.5176C110.007 37.9893 109.353 38.4893 108.631 38.8153C108.24 38.9869 107.858 39.0187 107.45 39.2002C106.35 39.627 105.258 40.2224 104.153 40.5566C103.405 40.7392 102.597 40.8697 101.823 40.9903C101.416 41.022 101.007 41.0528 100.61 41.1857C100.41 41.2433 100.221 41.3489 100.075 41.4732C97.7646 40.74 95.4374 40.0692 93.1087 39.4055C91.3091 38.8686 89.5305 38.2518 87.7303 37.7173C85.9861 37.2406 85.0484 37.164 83.1929 36.6128C82.5756 36.4328 81.9612 36.2427 81.3476 36.0493C79.797 35.5343 78.25 35.0066 76.7048 34.4708C75.8057 34.1907 74.9071 33.907 74.008 33.6235C74.4746 33.7137 74.9416 33.8006 75.409 33.8835C77.1237 34.1732 78.8596 34.3413 80.5888 34.5236C83.1778 34.7002 85.7879 34.5983 88.3841 34.2851C90.3675 33.9939 92.3622 33.8184 94.334 33.3973C95.805 33.0578 97.2475 32.5478 98.6772 32.0034C100.761 31.2183 102.847 30.3824 104.781 29.1436C107.209 27.5958 109.599 25.9032 111.733 23.8332C112.032 23.5351 112.291 23.1902 112.553 22.8511C112.599 22.8077 112.623 22.7549 112.625 22.6926C112.65 22.3297 112.132 22.3801 111.918 22.3544C111.377 22.3166 110.834 22.3086 110.292 22.2968C108.14 22.2585 105.988 22.2052 103.839 22.1226C103.092 22.0013 100.565 21.9867 99.1781 22.3053C98.2293 22.4597 97.2678 22.5928 96.3626 23.0077C95.0354 23.5532 93.803 24.3655 92.5255 25.0511C91.2941 25.6775 90.1425 26.5009 88.9193 27.144C87.1983 27.9614 85.4594 28.7756 83.7337 29.5493C81.828 30.1926 79.9104 30.8588 77.9851 31.2479C76.4059 31.4993 75.704 31.6074 74.2394 31.6343C72.8169 31.5403 71.3947 31.3985 69.9886 31.169C69.1238 31.0407 67.1786 30.4638 65.8273 30.3872C65.2327 30.4187 64.5497 30.339 64.0112 30.6957C62.8049 30.3944 61.5933 30.1174 60.3735 29.8776C59.6319 29.6167 58.8792 29.3941 58.1139 29.218C58.5568 29.256 59.0012 29.2697 59.4486 29.2236C60.9857 29.1114 62.4572 28.4617 63.921 27.9048C64.7207 27.6235 65.5213 27.3428 66.302 26.9888C66.3863 26.9602 66.4671 26.9229 66.5469 26.8832C66.9566 27.2233 67.4596 27.4096 67.9786 27.3485C68.5558 27.2975 69.1682 27.0967 69.5904 26.5958C70.1927 25.7744 70.6069 24.5323 70.2783 23.5184C70.2771 23.4565 70.272 23.3952 70.2654 23.3343C70.3822 23.3723 70.5105 23.3914 70.6382 23.3876C70.8022 23.4376 71.0565 23.3814 71.1526 23.3045C71.2375 23.2529 71.2671 23.1461 71.2646 23.0436C71.2647 23.04 71.2651 23.0362 71.2651 23.0326C71.2743 23.0163 71.2862 23.004 71.2944 22.9865C71.343 22.7328 71.3015 22.4515 71.2123 22.2215C70.9473 21.5433 70.1196 21.8833 69.7919 22.4172C69.4657 22.1618 69.0698 22.0653 68.6593 22.0754C68.1171 21.994 67.5455 22.1395 67.1046 22.5369C66.6736 22.7758 66.2722 23.1154 66.0288 23.6022C65.6952 24.2479 65.3507 25.2605 65.8598 25.8259C65.8719 25.8986 65.8859 25.9706 65.9028 26.041C65.919 26.1049 65.9418 26.1639 65.9674 26.2207C65.9304 26.2491 65.8899 26.2802 65.8459 26.314C65.0557 26.6888 64.8009 26.7801 63.7508 27.1812C62.5161 27.6736 61.1798 28.3067 60.2259 28.5468C58.9504 28.8892 57.7358 28.663 56.3173 28.6533C55.8985 28.6616 55.4779 28.6983 55.0587 28.7591C54.2463 28.6959 53.4299 28.6754 52.6124 28.6786C51.9377 28.5897 51.2582 28.5366 50.5826 28.4531C50.2922 28.4084 50.0023 28.3584 49.7126 28.3085C50.9673 28.1016 52.2264 27.9172 53.4448 27.4656C54.9427 26.9427 56.352 26.1287 57.6997 25.1948C58.7396 24.5048 59.7895 23.8241 60.7435 22.9751C61.8414 21.9983 62.8562 20.911 63.8477 19.7944C65.573 18.1485 67.244 16.4138 68.6486 14.3925C69.2193 13.5647 69.7898 12.7369 70.3606 11.9092C70.8955 11.2014 71.4522 10.4859 71.6858 9.57162C72.2408 7.49236 73.0402 5.49143 73.495 3.38142C73.7081 2.36492 73.6538 1.32953 73.578 0.311055C73.4168 -0.200879 72.4789 0.0191746 72.1566 0.262219C72.0255 0.348011 71.9431 0.494314 71.9276 0.663475C71.9127 0.750377 71.9015 0.837992 71.8955 0.926043C71.8948 0.953619 71.8927 0.979928 71.8905 1.00322C71.8325 1.3405 71.721 1.66416 71.6063 1.98297C71.323 2.77968 71.197 2.99503 70.622 3.58247C70.1463 4.05362 69.6289 4.49919 68.8772 5.05887C67.3864 6.12301 65.8682 7.13482 64.407 8.25657C63.0853 9.17761 61.8692 10.3312 60.969 11.7972C60.3371 12.7527 59.9195 13.8499 59.3926 14.8764C58.5341 16.49 57.3659 18.9632 56.7168 20.1791C56.1802 20.9994 55.4988 21.6807 54.9324 22.4745C54.2839 23.3376 53.6411 24.2321 52.8177 24.8804C52.2732 25.3028 51.7349 25.7427 51.1611 26.1086C50.8334 26.3062 50.4853 26.4438 50.1414 26.5932C49.0616 27.0521 47.986 27.5055 46.892 27.9606C46.8628 27.9696 46.8338 27.9786 46.8046 27.9874C45.5001 27.9665 44.1975 28.2291 42.8982 28.4058C41.2146 28.6123 39.5275 28.8045 37.8801 29.3341C37.9695 29.3111 38.0589 29.2881 38.1483 29.2651C36.875 29.6166 35.5807 29.7997 34.3042 30.121C32.7205 30.6111 31.1457 31.2197 29.6393 31.9942C26.7646 33.5892 23.9391 35.3306 21.2308 37.2961C20.2909 38.019 19.4013 38.8255 18.4885 39.5939C19.8418 37.9883 21.241 36.431 22.4566 34.6848C23.5005 33.3553 24.7355 32.2389 25.8507 30.9894C27.1902 29.4305 28.6282 28.3426 30.3902 26.8991C32.0069 25.6957 34.7828 24.1142 36.1392 23.2461C38.6122 21.7186 41.1097 20.1986 43.3971 18.3004C44.3973 17.4096 45.3034 16.3858 46.2327 15.3988C47.1431 14.2932 48.1116 13.1814 48.7077 11.8095C49.1507 10.6266 49.1703 9.36475 49.3568 8.26591C49.7641 6.33874 50.1237 4.37194 50.1166 2.39927C49.8333 4.44782 49.2087 6.42531 48.559 8.36779C48.2331 9.50819 48.0563 10.7087 47.5414 11.7764C46.8658 13.0368 45.4842 14.5465 44.3051 15.7694C43.4197 16.6713 42.6813 17.5066 42.0214 18.0429C39.3675 20.1794 36.485 21.8777 33.6492 23.6436C32.5625 24.3161 30.4963 25.4905 29.0084 26.6498C27.7085 27.6991 26.4124 28.763 25.2016 29.9513C24.5983 30.6068 24.0058 31.2758 23.393 31.9204C22.6899 32.6842 21.9553 33.4115 21.2804 34.2094C20.7384 34.975 20.1846 35.7283 19.6044 36.4574C18.4503 37.8802 17.2404 39.2505 16.1099 40.6996C16.5357 39.9845 16.9655 39.2551 17.396 38.4894C18.9023 36.2044 20.8392 32.9864 22.6391 30.4969C22.7158 30.3921 22.7924 30.287 22.869 30.1822C22.6574 30.4165 22.4458 30.6507 22.2344 30.8854C20.9311 32.4188 19.6707 33.9965 18.483 35.6502C17.0326 37.5417 15.7141 39.5491 14.4633 41.6161C15.4058 39.7252 16.3219 37.8157 17.3542 35.9883C18.2741 34.515 19.9791 32.3225 21.1926 30.6234C21.832 29.7646 22.4357 28.8703 23.0908 28.0271C23.9698 26.9832 24.9445 26.0525 25.885 25.085C28.5146 22.5058 31.742 20.2906 34.9923 18.0683C36.3883 17.1036 37.8162 16.2014 39.1951 15.2039C40.0078 14.5472 40.7628 13.7983 41.5859 13.1579C44.9845 10.4759 47.7563 7.2215 49.5226 2.8952C49.5785 2.77369 49.6367 2.65363 49.6936 2.53292C49.4716 2.86599 49.2617 3.20928 49.0495 3.5507C48.208 4.9132 47.263 6.18845 46.2526 7.38989C44.753 9.16235 43.0441 10.6853 41.2876 12.0943C40.7213 12.539 40.1503 12.9763 39.598 13.4448C38.9411 14.0071 38.3261 14.6398 37.6229 15.1249C33.1481 18.2353 28.4842 21.0896 24.4867 25.0354C23.6778 25.8879 22.8395 26.7054 22.0713 27.6082C21.1596 28.7572 20.3626 30.0212 19.4841 31.2042C18.3245 32.8453 17.0761 34.4211 16.1126 36.2278C14.8307 38.8661 13.8464 41.6684 12.7176 44.391C12.641 44.5151 12.5652 44.64 12.4903 44.7654C12.1916 45.0601 11.8955 45.3589 11.6019 45.6608C11.4334 45.8168 11.2649 45.9731 11.0964 46.1291C10.6667 46.5325 10.2762 46.9891 9.86332 47.4154C9.18951 48.1347 8.56966 48.9185 7.9204 49.6671C6.74039 51.0463 5.59074 52.4722 4.55845 54.0001C3.48003 55.7269 2.48031 57.5259 1.62626 59.4069C1.08047 60.3145 0.542142 61.2279 -2.03423e-05 62.1373C0.366617 61.6439 0.72942 61.1466 1.09106 60.648C0.872457 61.1815 0.662398 61.7194 0.471126 62.2668C1.13939 60.9698 1.87254 59.7202 2.64533 58.5027C3.4806 57.3541 4.32474 56.2146 5.20456 55.1109C7.50417 52.456 9.8583 49.8617 12.2448 47.3112C12.4327 47.1155 12.6218 46.9207 12.8106 46.7256C13.1176 46.5324 13.3714 46.2085 13.6223 45.8937C14.3005 45.2034 14.9859 44.5201 15.6793 43.8472C17.0786 42.989 18.4787 42.1331 19.9091 41.3507C20.8272 40.8272 21.7489 40.2894 22.7317 39.9657C24.5321 39.5708 25.3013 39.6213 26.3482 39.4766C29.7184 39.0825 32.7621 39.2385 35.5805 40.2462C37.7949 40.7428 39.9641 41.4276 42.0505 42.3792C43.0968 42.8131 44.1704 43.1619 45.1959 43.6572C46.6535 44.2995 48.114 44.9338 49.579 45.5556C50.844 45.98 52.1109 46.3966 53.3791 46.81C54.7561 47.2825 56.0961 47.7964 57.5424 47.9849C58.9483 48.1949 60.3404 48.5408 61.7659 48.5926C63.6652 48.5697 65.5453 47.9858 67.3765 47.3641C68.7304 46.8685 70.0966 46.4171 71.4153 45.791C71.5982 45.7065 71.7813 45.6218 71.964 45.5354C72.0366 45.5182 72.1091 45.4979 72.1818 45.4731C72.6833 45.3119 73.1204 44.9701 73.5645 44.6601C73.6662 44.5779 73.7961 44.527 73.8606 44.3985C74.0151 44.1409 73.7165 44.0078 73.5294 43.9923C73.21 43.9374 72.9321 44.0655 72.6616 44.2304C72.661 44.2303 72.6603 44.2302 72.6597 44.2303C72.7242 44.1898 72.6996 44.2051 72.6591 44.2302C72.6583 44.2302 72.6573 44.23 72.6565 44.2299C72.6408 44.2405 72.6318 44.2466 72.6263 44.2505C72.5946 44.2701 72.5646 44.2887 72.5639 44.2892C72.4654 44.3476 72.3681 44.413 72.2706 44.4786C72.2075 44.5178 72.1439 44.5554 72.0794 44.5895C71.9511 44.6587 71.8212 44.7232 71.6916 44.7888C71.0874 44.664 70.3822 44.5332 69.7316 44.4572C68.4663 44.2637 67.1792 44.1615 65.9409 43.8176C65.1488 43.5537 64.501 43.1436 63.5046 42.6909C61.8194 41.895 60.187 40.958 58.6439 39.8559C58.0587 39.447 57.5515 38.9108 56.9615 38.51C56.0704 37.8998 55.1351 37.3772 54.217 36.8212C52.4252 35.7872 50.6467 34.7037 48.7957 33.8084C48.0113 33.539 47.1838 33.4519 46.3771 33.2836C45.5094 33.1136 44.6443 32.9243 43.7663 32.8187C41.341 32.5206 38.8816 32.6887 36.4478 33.0979C33.0664 33.5791 29.7116 34.5318 26.525 36.0404C25.0332 36.7393 23.5973 37.5919 22.2013 38.5289C21.3013 38.9781 20.4656 39.5968 19.6457 40.2372C21.6958 38.5072 23.8342 36.9307 26.0985 35.612C31.6358 32.3046 37.7394 30.6072 43.8417 30.0191C45.7777 29.7799 47.7174 29.6051 49.6555 29.5713C50.4124 29.665 51.3785 29.7339 51.8427 29.8126C51.8382 29.8149 51.8334 29.817 51.8289 29.8195C51.8342 29.8172 51.8395 29.8154 51.8448 29.813C51.941 29.8293 52.017 29.8461 52.0631 29.8635C54.0625 30.4144 55.4863 30.5589 57.0974 31.0168C58.9377 31.4553 60.7263 32.1217 62.5888 32.4516C63.302 32.592 63.9439 32.6754 64.5108 32.767C64.6212 32.8315 64.7318 32.8952 64.8416 32.9608C66.0657 33.6748 67.31 34.3568 68.4923 35.1551C70.3145 36.4172 72.0096 37.8893 73.6957 39.3725C75.2358 40.6649 76.5366 41.8435 77.8143 43.1566C78.5765 43.9044 79.3225 44.6767 79.982 45.547C80.086 45.6968 80.1923 45.8446 80.2974 45.9937C79.8959 46.2022 79.5229 46.5007 79.2118 46.8416C78.5925 47.6856 78.8179 49.0157 79.4795 49.6807C80.0593 50.4219 80.7453 51.0449 81.6501 51.1404C82.7319 51.3038 83.8993 51.1667 84.9511 50.6944C84.9701 50.7479 84.9963 50.7944 85.0261 50.837C85.0612 50.9203 85.1036 50.9989 85.1515 51.0707C85.1763 51.2085 85.2242 51.3384 85.3032 51.4478C85.8886 52.1791 87.3203 51.7831 87.6107 50.8128C87.7073 50.4881 87.6917 50.1045 87.4666 49.8715C87.4354 49.8333 87.4014 49.7991 87.3678 49.7647C87.3406 49.6856 87.3089 49.6093 87.2705 49.5384C87.1551 49.31 86.9814 49.1721 86.7818 49.1007C87.1335 48.1982 86.8502 47.1562 86.0223 46.6686C85.7245 46.4792 85.4093 46.3333 85.0842 46.2196C84.1487 45.5047 82.9134 45.2394 81.7829 45.474C81.7758 45.4746 81.7669 45.4761 81.7567 45.4779C81.0306 44.5856 80.1393 43.7871 79.5381 43.1998C77.6049 41.2008 75.5028 39.4437 73.4154 37.6655C71.7738 36.2565 70.0784 34.9185 68.2511 33.838C69.2991 34.1374 70.3551 34.4048 71.4166 34.6522C72.9997 34.9489 74.9121 35.3776 76.9431 35.9583C77.8114 36.2394 78.6785 36.5245 79.5477 36.802C79.8424 36.9085 80.1372 37.0145 80.4321 37.1204C80.6898 37.2083 80.9451 37.3036 81.1988 37.4026C82.1174 37.7967 82.965 38.3662 83.8539 38.8327C84.4325 39.146 85.0536 39.3541 85.5994 39.7432C86.3711 40.2394 86.7775 40.7795 87.5023 41.5748C89.134 43.2931 90.4009 45.3964 91.5627 47.5577C92.4096 49.1361 93.4176 50.5813 94.3117 52.1189C95.6347 54.6918 96.9398 57.2957 98.6126 59.5841C99.543 60.8409 100.439 62.1566 101.586 63.1636C102.737 64.1467 103.975 65.0245 105.32 65.6296C106.804 66.2482 108.381 66.5575 109.88 67.1219C110.535 67.3981 111.185 67.7113 111.788 68.1103C111.92 68.4909 112.015 68.9246 112.55 68.985C112.832 69.0103 113.148 68.9453 113.369 68.7173C113.415 68.6685 113.437 68.6093 113.435 68.5401C113.41 68.339 113.41 68.1096 113.284 67.9561C113.148 67.8207 113.005 67.6979 112.857 67.5802C112.296 66.323 111.511 64.7694 110.91 63.4201C109.676 60.7977 108.475 58.1424 107.03 55.6713C105.168 52.6818 102.978 49.9827 100.601 47.5385C97.8762 44.7953 94.6303 42.8337 91.3448 41.0955C89.4714 40.1097 87.5656 39.2025 85.6116 38.4381C85.6771 38.4528 85.7425 38.4676 85.8077 38.4823C86.426 38.6691 87.0443 38.8551 87.6631 39.0393C88.3584 39.2664 89.0517 39.5008 89.7483 39.7232C91.432 40.3163 93.1424 40.8119 94.8601 41.2758C96.3158 41.7888 97.8063 42.1713 99.2687 42.6611C99.4842 42.7247 99.6977 42.793 99.9104 42.8627C99.8761 42.8623 99.8418 42.8624 99.8073 42.8617C99.672 42.8127 99.5369 42.7631 99.4011 42.7158C98.7389 42.514 98.0797 42.2245 97.381 42.2258C97.7661 42.2467 98.122 42.4108 98.4769 42.5582C99.5607 43.0173 100.603 43.5852 101.657 44.1203C102.536 44.5843 103.426 44.9315 104.289 45.3998C105.034 45.8211 105.709 46.3771 106.411 46.8792C107.444 47.7182 108.496 48.5323 109.516 49.3914C109.695 49.5085 110.029 49.8924 110.411 50.2146C109.338 50.7321 108.729 51.7753 109.278 52.9716C109.213 53.2053 109.167 53.4435 109.161 53.688C109.186 54.2533 109.546 54.6973 109.908 55.0239C110.73 55.7869 111.874 55.9726 112.921 55.7513C113.173 55.7092 113.44 55.6149 113.703 55.4797C114.26 56.0199 115.235 56.0669 115.925 55.6524C116.295 55.5985 116.68 55.4715 116.897 55.1072C117.005 54.8796 117.055 54.6743 117.061 54.4903C117.062 54.4902 117.063 54.4902 117.064 54.4899C117.063 54.49 117.062 54.4898 117.061 54.4896C117.077 54.0093 116.783 53.6857 116.358 53.5584C116.322 53.4938 116.283 53.4335 116.241 53.3777C116.347 53.2202 116.439 53.0512 116.509 52.8681C116.606 52.4427 116.504 52.0063 116.316 51.6327C116.24 50.7498 115.728 49.966 114.947 49.7693C114.432 49.6286 113.83 49.5596 113.262 49.5486C112.85 49.4991 112.431 49.5204 112.027 49.6282C111.974 49.6373 111.922 49.6469 111.873 49.6574C111.541 49.4377 111.232 49.1723 110.915 48.9279C108.786 47.3507 106.734 45.5308 104.297 44.5877C102.798 44.0517 101.329 43.4156 99.8325 42.8711C99.879 42.8753 99.9255 42.8781 99.9719 42.8823C101.703 43.4541 103.349 44.2047 105.054 44.8673C106.531 45.4433 109.517 45.8572 110.196 45.9158C112.398 46.3622 113.961 46.869 116.517 47.058C117.332 47.0897 118.133 47.2507 118.949 47.2761C119.396 47.3028 119.816 47.3225 120.234 47.3391C120.25 47.3628 120.272 47.3867 120.299 47.4107C120.565 47.5205 120.847 47.5367 121.134 47.5338C121.502 47.6028 121.817 47.6566 122.339 47.8187C122.844 48.0132 122.981 48.1591 123.674 48.4296C124.344 48.6431 125.13 48.8429 126.124 49.061C127.983 49.4439 129.449 49.5899 130.837 50.4788C132.376 51.3939 134.183 52.5382 135.168 53.6363C135.776 54.2655 136.166 55.1177 136.738 55.7851C137.557 56.6848 138.463 57.5087 139.439 58.1746C140.811 58.9513 142.329 59.3134 143.789 59.8277C145.329 60.217 146.844 60.8035 148.44 60.8759C151.601 60.9872 154.261 60.6964 157.074 60.9956C158.09 61.2238 159.246 61.0964 159.586 60.1573C159.659 60.0875 159.684 59.9588 159.625 59.8764C159.349 59.5836 159.088 59.2713 158.793 59.0036C157.532 57.8655 156.116 56.9788 154.738 56.04C151.687 54.0664 148.562 52.2242 145.258 50.8361C143.801 50.182 142.294 49.6806 140.803 49.1302C139.498 48.6472 138.18 48.2086 136.83 47.8937C136.106 47.7054 135.378 47.5478 134.647 47.4136C134.866 47.3875 135.085 47.3579 135.303 47.3224C135.94 47.2119 136.623 46.9903 137.201 46.8656C138.431 46.7036 139.67 46.6583 140.903 46.5306C141.694 46.4699 142.481 46.3523 143.263 46.1678C143.357 46.1484 143.45 46.1236 143.543 46.097C144.163 46.0128 144.782 45.9224 145.401 45.823C145.802 45.8285 146.176 45.853 146.523 45.8337C148.01 45.7864 149.499 45.6367 150.985 45.6506C151.312 45.6588 151.639 45.6673 151.966 45.6757C153.518 45.7222 155.039 46.0397 156.586 46.1354C158.211 46.2104 159.857 46.099 161.475 45.7844C163.331 45.366 165.158 44.7649 167.011 44.3202C168.312 43.9672 169.631 43.6852 170.902 43.1821C173.441 42.1353 175.783 40.4329 177.66 38.156C179.638 35.7589 181.725 33.441 184.12 31.61C185.043 30.9223 185.929 30.1596 186.901 29.568C187.453 29.214 188.076 29.0612 188.634 28.7246C188.764 28.657 188.926 28.5524 188.925 28.371ZM20.629 40.2647C21.0066 40.0248 21.384 39.784 21.7596 39.5397C21.8253 39.4966 21.8919 39.4551 21.9578 39.4125C22.3567 39.1847 22.7656 38.9817 23.2023 38.825C24.2725 38.479 25.5498 38.0029 26.5208 37.7202C27.4962 37.5036 28.5366 37.431 29.6505 37.3248C32.6876 37.0858 35.5179 37.0701 38.4705 37.4625C40.5655 37.7707 42.6803 38.0011 44.7464 38.4789C46.0577 38.8611 47.309 39.4496 48.5848 39.9495C48.6287 39.9675 48.6728 39.9849 48.7166 40.0031C48.676 39.9799 48.6357 39.9562 48.5954 39.9329C48.2759 39.7477 47.9563 39.5632 47.6364 39.379C46.9505 38.9963 46.2734 38.5895 45.5611 38.2694C44.562 37.8257 43.4932 37.6251 42.4424 37.3783C40.776 36.999 39.1006 36.6465 37.4001 36.4743C35.4477 36.2906 33.4769 36.3144 31.5112 36.423C29.8341 36.5153 28.1467 36.6566 26.4823 36.9848C26.238 37.0449 25.9957 37.1155 25.7546 37.1915C26.6033 36.7508 27.463 36.3413 28.3341 35.9696C31.1263 34.7861 34.0365 34.0749 36.9617 33.6964C39.2937 33.3224 41.6596 33.2559 43.9644 33.6556C45.2702 33.9343 46.607 34.1001 47.8867 34.4942C48.2856 34.6574 49.3604 35.3086 50.0957 35.7163C51.9798 36.7824 53.8602 37.8628 55.6842 39.0544C56.4264 39.5613 57.0616 40.2446 57.8173 40.7295C60.0007 42.2562 62.3731 43.4044 64.75 44.4927C66.1261 44.9347 67.5734 45.0493 68.992 45.2705C69.4122 45.2954 69.8314 45.3893 70.2504 45.4715C70.0232 45.5735 69.7959 45.6751 69.5693 45.7777C67.7529 46.3664 64.2024 47.9994 61.6805 47.7294C60.0833 47.4886 58.4854 47.2212 56.9072 46.8704C54.9516 46.2218 53.0086 45.5212 51.0499 44.8789C48.7092 44.0037 46.4777 42.7987 44.1367 41.9229C42.7102 41.3887 41.3456 40.6673 39.8828 40.2506C38.8723 39.8879 37.8282 39.6642 36.7919 39.4059C35.6552 39.0599 34.5225 38.6811 33.3431 38.5359C30.2056 38.0946 27.0039 38.4045 23.8595 38.9999C22.701 39.1622 21.6298 39.6582 20.6007 40.2847C20.61 40.2778 20.6195 40.2713 20.629 40.2647ZM17.4986 42.4213C16.9864 42.7991 16.4775 43.1837 15.9691 43.5687C16.1675 43.3777 16.3684 43.1905 16.5682 43.0016C17.2229 42.5587 17.8814 42.1235 18.5383 41.6856C18.1908 41.9344 17.8447 42.1826 17.4986 42.4213ZM33.1601 31.6406C33.7089 31.439 34.2954 31.2474 34.9623 31.0487C35.0405 31.0307 35.1187 31.0136 35.1971 30.9979C34.5145 31.196 33.8352 31.4087 33.1601 31.6406ZM48.6637 28.1363C48.264 28.077 47.863 28.0284 47.4592 28.0049C49.973 27.1628 52.4767 26.2672 54.9319 25.2054C57.4142 23.9274 59.805 22.249 61.7479 20.0088C62.5991 18.9802 63.2249 17.7481 63.9295 16.5923C64.4603 15.6971 64.9353 14.7571 65.5544 13.9339C64.4902 15.0795 63.6182 16.4344 62.6695 17.7025C61.382 19.6472 59.8069 21.1207 58.0215 22.3933C56.5715 23.4479 55.2283 24.3164 53.674 25.0606C54.1144 24.7322 54.5373 24.3741 54.9197 23.9527C55.4563 23.3858 55.9425 22.7601 56.4468 22.1561C56.9492 21.5505 57.5088 20.9975 57.9484 20.3278C58.5712 19.285 59.075 18.1577 59.6428 17.0765C60.1196 16.1282 60.6443 15.2117 61.1169 14.2606C62.1614 11.8135 63.4571 10.0301 65.3559 8.70102C66.837 7.54579 68.3733 6.49531 69.8935 5.41519C70.5487 4.90282 71.2223 4.385 71.8206 3.77597C71.7149 4.27977 71.5684 4.79873 71.3808 5.381C71.0619 6.40183 70.7397 7.42159 70.4239 8.44363C70.2175 9.12872 70.0742 9.84419 69.7685 10.4877C69.6175 10.8643 69.1277 11.3914 68.7255 12.013C67.8779 13.2458 67.0538 14.5012 66.1377 15.6691C65.0182 17.1302 63.7214 18.3882 62.4554 19.6731C61.8564 20.365 61.2627 21.0611 60.6273 21.7095C59.4825 22.9075 58.3635 23.7613 56.8339 24.7826C55.6373 25.6392 54.3243 26.4603 53.0942 26.9546C51.8162 27.4996 50.5678 27.6721 49.2385 27.9964C49.0509 28.0425 48.8588 28.0889 48.6637 28.1363ZM78.1486 31.9701C80.2487 31.5318 82.3996 30.8398 84.4506 30.1128C86.4189 29.2095 88.4108 28.3632 90.3469 27.3618C91.5506 26.603 92.7775 25.902 94.0161 25.2281C95.0069 24.6503 96.0975 23.994 97.086 23.5761C97.7539 23.2812 98.4527 23.2126 99.2018 23.0772C100.102 22.9289 100.052 22.9198 100.908 22.8516C101.292 22.8407 101.676 22.8359 102.06 22.8279C104.28 22.9851 106.509 23.0183 108.736 23.0734C109.245 23.0975 110.143 23.1044 110.919 23.1351C110.617 23.5228 110.273 23.861 109.923 24.1885C108.156 25.7523 105.059 28.1204 102.592 29.4699C101.187 30.2381 99.7193 30.8212 98.2516 31.3847C96.9667 31.8798 95.673 32.3551 94.3541 32.6899C92.4079 33.1296 90.4352 33.3033 88.4757 33.5992C86.5156 33.8491 83.9483 34.005 81.7328 33.8894C79.4959 33.7369 77.2719 33.4392 75.0585 33.0902C76.5024 33.1193 77.9505 32.9654 79.3927 32.7961C81.2613 32.6038 83.1257 32.3457 84.987 32.0406C87.754 31.526 90.4879 30.7179 93.2282 30.0052C93.6698 29.889 94.594 29.6587 95.1896 29.5006C94.748 29.5771 94.3064 29.6543 93.8649 29.7323C91.9042 30.0804 89.9519 30.5081 87.9946 30.8877C84.6006 31.6158 80.827 32.0217 77.6239 32.367C76.4694 32.4995 75.3225 32.484 74.1809 32.3904C75.505 32.3715 76.8319 32.1837 78.1486 31.9701ZM93.5837 43.3302C95.3814 44.4713 97.1537 45.6803 98.7609 47.1491C100.129 48.4208 101.894 50.4234 103.254 52.1868C104.373 53.6547 105.455 55.1718 106.376 56.8204C107.608 59.1049 108.709 61.4823 109.805 63.861C110.215 64.757 110.626 65.6532 111.046 66.5428C110.779 66.4298 110.51 66.3262 110.244 66.2275C108.871 65.7788 107.46 65.4458 106.128 64.8655C104.86 64.2191 102.666 62.7436 101.59 61.2904C100.297 59.6431 99.0628 57.9277 98.0069 56.0617C97.1827 54.6166 96.4378 53.1105 95.668 51.6251C95.2911 50.9034 94.8179 50.2614 94.3891 49.5829C93.6636 48.3863 92.952 47.1788 92.2755 45.9429C91.8706 45.2304 91.4449 44.5322 90.9911 43.8608C94.1089 46.6244 96.983 50.0821 100.01 53.2717C101.319 54.7906 102.685 56.2427 103.965 57.7949C103.997 57.8313 104.18 58.066 104.029 57.8481C103.276 56.6475 102.446 55.5183 101.621 54.3849C98.1718 49.7353 94.4156 45.3294 90.0314 41.843C89.3733 41.3207 88.7067 40.8083 88.0296 40.3146C87.7607 40.0341 87.4818 39.7678 87.1839 39.5306C89.3576 40.7067 91.4778 42.0094 93.5837 43.3302ZM103.036 42.4708C103.908 42.3237 104.776 42.0773 105.631 41.8457C107.476 41.2953 109.335 40.8285 111.189 40.3263C112.195 40.0309 113.225 39.8721 114.224 39.5314C115.607 39.0441 116.944 38.3822 118.284 37.7446C121.308 36.2564 124.307 34.6949 127.296 33.106C127.626 32.9457 127.956 32.7847 128.286 32.6233C127.756 32.8324 127.223 33.0284 126.702 33.2654C122.538 35.0447 118.445 37.0597 114.29 38.8655C113.37 39.2483 112.406 39.3989 111.462 39.6566C109.087 40.2841 106.716 40.9304 104.349 41.6037C103.469 41.8098 102.565 42.0032 101.674 41.9203C101.508 41.9108 101.363 41.8387 101.227 41.743C101.261 41.7382 101.298 41.7338 101.339 41.7331C102.67 41.5899 104.023 41.4012 105.311 40.9254C106.259 40.5465 107.188 40.103 108.14 39.7395C108.572 39.6049 109.033 39.5053 109.474 39.2782C110.778 38.6259 111.939 37.6401 113.158 36.7994C115.196 35.4338 117.049 33.742 118.963 32.1559C120.582 30.7986 122.283 29.5372 124.14 28.6883C125.234 28.242 126.353 27.9197 127.477 27.6857C129.218 27.3399 130.955 26.9355 132.711 26.7725C134.713 26.4721 137.234 26.0945 138.916 25.9523C139.846 26.0096 140.744 25.659 141.65 25.4237C143.25 24.9889 144.844 24.4954 146.388 23.8068C147.027 23.5314 147.629 23.1581 148.227 22.7725C148.02 23.2374 147.534 23.6731 147.039 24.1726C146.353 24.8872 145.888 25.2701 145.055 26.0332C143.515 27.4283 141.983 28.8578 140.293 29.9991C137.717 31.7127 135.761 32.9932 133.238 34.4764C129.252 36.8147 124.895 37.9187 120.68 39.4658C118.36 40.2225 116.682 40.7601 114.494 41.2718C112.809 41.6671 111.104 41.8893 109.402 42.1094C107.856 42.3009 106.831 42.436 105.348 42.5457C104.772 42.6019 104.196 42.6549 103.62 42.7033C103.426 42.6235 103.232 42.5462 103.036 42.4708ZM132.969 46.924C133.495 46.9082 134.02 46.8883 134.546 46.8663C133.648 46.9599 132.795 47.0143 131.966 47.0259C131.834 47.0115 131.703 46.9966 131.571 46.9834C132.037 46.9658 132.503 46.945 132.969 46.924ZM138.283 49.1338C141.582 50.2792 144.873 51.4856 147.987 53.1607C150.092 54.3038 152.142 55.5734 154.155 56.9093C155.326 57.7003 156.942 58.8177 157.711 59.575C157.902 59.7661 158.08 59.974 158.262 60.1758C158.272 60.1875 158.283 60.1991 158.294 60.2106C158.266 60.2584 158.238 60.3066 158.215 60.3464C158.129 60.3347 158.027 60.3173 157.953 60.3071C157.075 60.1517 156.173 60.1777 155.284 60.109C153.42 60.0349 150.913 60.1679 149.379 60.1109C147.791 60.0842 146.296 59.4648 144.775 59.058C143.318 58.5249 141.787 58.119 140.771 57.4976C140.12 57.0881 139.564 56.5161 138.969 56.0137C138.912 55.9685 138.291 55.3579 138.001 54.9482C137.543 54.288 137.144 53.562 136.584 53.0065C135.669 52.0605 134.624 51.2986 133.543 50.6222C132.538 50.0135 131.554 49.3332 130.449 48.9682C128.572 48.4111 126.859 48.2734 125.33 47.8284C125.935 47.8084 126.54 47.7879 127.137 47.8793C129.795 48.294 132.328 49.315 134.93 49.9978C136.616 50.421 138.145 51.3062 139.721 52.0565C140.779 52.5665 141.923 52.8046 143.06 53.0119C143.66 53.1307 144.27 53.1807 144.878 53.2476C144.452 53.1565 144.023 53.0828 143.601 52.9758C142.419 52.6547 141.223 52.324 140.153 51.6658C139.289 51.1588 138.438 50.6188 137.553 50.1556C136.824 49.8018 136.06 49.5462 135.298 49.2937C133.308 48.691 131.333 47.9956 129.31 47.5268C129.785 47.5627 130.261 47.5839 130.738 47.5922C133.296 47.8544 135.829 48.3136 138.283 49.1338ZM184.343 30.3986C182.221 31.9301 180.25 33.718 178.44 35.7213C177.055 37.2186 175.674 39.0403 174.421 40.0425C173.134 41.1452 171.68 41.9613 170.187 42.5845C168.482 43.1892 166.729 43.5509 164.998 44.0195C162.673 44.6746 160.687 45.299 158.254 45.312C156.519 45.3944 154.829 44.9579 153.106 44.8965C152.127 44.8374 151.147 44.8417 150.166 44.8807C152.856 44.2237 155.513 43.3541 158.14 42.379C162.96 40.6084 167.694 38.405 172.122 35.4917C172.444 35.284 172.766 35.0752 173.087 34.8665C172.719 35.0531 172.351 35.2397 171.984 35.4271C167.614 37.6965 163.111 39.5754 158.582 41.3182C155.347 42.538 152.074 43.6481 148.741 44.3564C147.516 44.6169 146.288 44.8373 145.057 45.027C145.231 44.8751 145.436 44.7554 145.609 44.6368C146.545 44.0268 147.582 43.7411 148.596 43.3934C150.025 42.8911 151.479 42.4827 152.881 41.8769C154.907 40.9164 156.917 39.8577 158.803 38.5461C160.055 37.5665 161.255 36.4974 162.511 35.5219C163.651 34.7038 164.809 33.9171 165.948 33.0951C167.171 32.3062 168.66 31.5378 170.156 30.5385C171.705 29.4792 173.534 28.6909 175.321 28.2386C176.1 28.0541 176.869 27.7412 177.662 27.7201C179.114 27.6779 180.548 27.9355 181.988 28.0555C183.668 28.2119 185.345 28.3823 187.003 28.6932C186.067 29.1419 185.183 29.7236 184.343 30.3986Z" fill="#E3E1E1"/>
</svg>
